<svg width="500" height="361" viewBox="0 0 500 361" fill="none" xmlns="http://www.w3.org/2000/svg">
<path d="M500 327.4H0V327.65H500V327.4Z" fill="#EBEBEB"/>
<path d="M433.79 338.04H400.67V338.29H433.79V338.04Z" fill="#EBEBEB"/>
<path d="M313.07 337.92H304.38V338.17H313.07V337.92Z" fill="#EBEBEB"/>
<path d="M449.9 343.49H430.71V343.74H449.9V343.49Z" fill="#EBEBEB"/>
<path d="M114.6 346.81H71.41V347.06H114.6V346.81Z" fill="#EBEBEB"/>
<path d="M110.89 335.89H104.56V336.14H110.89V335.89Z" fill="#EBEBEB"/>
<path d="M248.45 336.96H187.55V337.21H248.45V336.96Z" fill="#EBEBEB"/>
<path d="M237 282.8H43.91C42.3974 282.797 40.9476 282.195 39.8789 281.124C38.8102 280.054 38.21 278.603 38.21 277.09V5.66C38.2232 4.15603 38.8292 2.71798 39.8965 1.65822C40.9637 0.598458 42.406 0.00257639 43.91 0H237C238.514 0 239.967 0.601588 241.038 1.67242C242.108 2.74325 242.71 4.19561 242.71 5.71V277.09C242.71 278.604 242.108 280.057 241.038 281.128C239.967 282.198 238.514 282.8 237 282.8ZM43.91 0.200001C42.4637 0.20265 41.0775 0.779065 40.0557 1.80273C39.0339 2.82639 38.46 4.21365 38.46 5.66V277.09C38.46 278.536 39.0339 279.924 40.0557 280.947C41.0775 281.971 42.4637 282.547 43.91 282.55H237C238.447 282.547 239.835 281.971 240.858 280.948C241.881 279.924 242.457 278.537 242.46 277.09V5.66C242.457 4.21273 241.881 2.82549 240.858 1.80212C239.835 0.77874 238.447 0.202644 237 0.200001H43.91Z" fill="#EBEBEB"/>
<path d="M453.31 282.8H260.21C258.696 282.797 257.246 282.195 256.175 281.125C255.105 280.054 254.503 278.604 254.5 277.09V5.66C254.516 4.15511 255.124 2.71708 256.193 1.65759C257.262 0.598109 258.705 0.00254829 260.21 0H453.31C454.812 0.0052045 456.252 0.602249 457.317 1.66173C458.382 2.72121 458.987 4.15775 459 5.66V277.09C459 278.601 458.401 280.05 457.335 281.121C456.268 282.191 454.821 282.795 453.31 282.8ZM260.21 0.200001C258.763 0.202644 257.375 0.77874 256.352 1.80212C255.329 2.82549 254.753 4.21273 254.75 5.66V277.09C254.753 278.537 255.329 279.924 256.352 280.948C257.375 281.971 258.763 282.547 260.21 282.55H453.31C454.757 282.547 456.145 281.971 457.168 280.948C458.191 279.924 458.767 278.537 458.77 277.09V5.66C458.767 4.21273 458.191 2.82549 457.168 1.80212C456.145 0.77874 454.757 0.202644 453.31 0.200001H260.21Z" fill="#EBEBEB"/>
<path d="M428.89 41.33H71.11V190.22H428.89V41.33Z" fill="#F0F0F0"/>
<path d="M421.89 183.23V48.34L78.11 48.34V183.23L421.89 183.23Z" fill="#FAFAFA"/>
<path d="M123.37 183.22L158.63 48.33H184.63L149.37 183.22H123.37Z" fill="white"/>
<path d="M155.37 183.22L190.63 48.33H202.26L167 183.22H155.37Z" fill="white"/>
<path d="M212.27 183.22L247.54 48.33H273.54L238.27 183.22H212.27Z" fill="white"/>
<path d="M277.83 183.22L313.09 48.33H324.73L289.46 183.22H277.83Z" fill="white"/>
<path d="M170.21 183.23V48.34H168.43V183.23H170.21Z" fill="#E0E0E0"/>
<path d="M79.89 183.23L79.89 48.34H78.11L78.11 183.23H79.89Z" fill="#E0E0E0"/>
<path d="M168.43 183.23V48.34H161.43V183.23H168.43Z" fill="#F0F0F0"/>
<path d="M257 183.23V48.34H255.22V183.23H257Z" fill="#E0E0E0"/>
<path d="M255.22 183.23V48.34H248.22V183.23H255.22Z" fill="#F0F0F0"/>
<path d="M343.83 183.22V48.33H342.05V183.22H343.83Z" fill="#E0E0E0"/>
<path d="M342.05 183.22V48.33H335.05V183.22H342.05Z" fill="#F0F0F0"/>
<path d="M430.67 190.22V41.33H428.89V190.22H430.67Z" fill="#E0E0E0"/>
<path d="M434.67 31.11H65.33C64.9198 31.1074 64.527 30.9432 64.2369 30.6531C63.9468 30.363 63.7827 29.9703 63.78 29.56C63.78 29.148 63.943 28.7527 64.2334 28.4604C64.5238 28.1682 64.918 28.0026 65.33 28H434.67C435.082 28.0026 435.476 28.1682 435.767 28.4604C436.057 28.7527 436.22 29.148 436.22 29.56C436.217 29.9703 436.053 30.363 435.763 30.6531C435.473 30.9432 435.08 31.1074 434.67 31.11Z" fill="#E0E0E0"/>
<g opacity="0.6">
<path d="M142.34 25H66.78V296.67H142.34V25Z" fill="#F5F5F5"/>
<path d="M107.72 298.89H101.39L103.17 27.22H106L107.72 298.89Z" fill="#E6E6E6"/>
<path d="M86.7501 298.89H83.6901L84.5501 27.22H85.9201L86.7501 298.89Z" fill="#E6E6E6"/>
<path d="M128.75 298.89H125.69L126.55 27.22H127.92L128.75 298.89Z" fill="#E6E6E6"/>
</g>
<g opacity="0.6">
<path d="M432.32 25H356.76V296.67H432.32V25Z" fill="#F5F5F5"/>
<path d="M386.37 298.89H380.04L381.82 27.22H384.65L386.37 298.89Z" fill="#E6E6E6"/>
<path d="M372.4 298.89H369.35L370.2 27.22H371.57L372.4 298.89Z" fill="#E6E6E6"/>
<path d="M404.73 298.89H401.68L402.54 27.22H403.9L404.73 298.89Z" fill="#E6E6E6"/>
<path d="M420.29 298.89H417.24L418.09 27.22H419.46L420.29 298.89Z" fill="#E6E6E6"/>
</g>
<path d="M325.21 325.7H339.41V244.32H325.21V325.7Z" fill="#E6E6E6"/>
<path d="M160.59 325.7H330.68V244.32H160.59V325.7Z" fill="#F0F0F0"/>
<path d="M326.86 325.7H321.74H167.93V327.4H321.74H326.86H332.07V325.7H326.86Z" fill="#E0E0E0"/>
<path opacity="0.5" d="M165.44 282.25H325.83V249.41L165.44 249.41V282.25Z" fill="#FAFAFA"/>
<path opacity="0.5" d="M165.44 320.39H325.83V287.55H165.44V320.39Z" fill="#FAFAFA"/>
<path d="M189.75 265.83C189.75 266.544 189.538 267.242 189.142 267.836C188.745 268.429 188.181 268.892 187.521 269.165C186.862 269.438 186.136 269.51 185.436 269.371C184.735 269.231 184.092 268.887 183.587 268.383C183.082 267.878 182.739 267.235 182.599 266.534C182.46 265.834 182.532 265.108 182.805 264.448C183.078 263.789 183.541 263.225 184.134 262.828C184.728 262.432 185.426 262.22 186.14 262.22C186.614 262.22 187.083 262.313 187.521 262.495C187.959 262.676 188.357 262.942 188.693 263.277C189.028 263.613 189.294 264.011 189.475 264.448C189.657 264.886 189.75 265.356 189.75 265.83Z" fill="#E0E0E0"/>
<path d="M308.73 265.83C308.73 266.544 308.518 267.242 308.122 267.836C307.725 268.429 307.161 268.892 306.501 269.165C305.842 269.438 305.116 269.51 304.416 269.371C303.715 269.231 303.072 268.887 302.567 268.383C302.062 267.878 301.719 267.235 301.579 266.534C301.44 265.834 301.512 265.108 301.785 264.448C302.058 263.789 302.521 263.225 303.114 262.828C303.708 262.432 304.406 262.22 305.12 262.22C305.594 262.22 306.064 262.313 306.501 262.495C306.939 262.676 307.337 262.942 307.673 263.277C308.008 263.613 308.274 264.011 308.455 264.448C308.637 264.886 308.73 265.356 308.73 265.83Z" fill="#E0E0E0"/>
<path d="M186.14 307.58C188.134 307.58 189.75 305.964 189.75 303.97C189.75 301.976 188.134 300.36 186.14 300.36C184.146 300.36 182.53 301.976 182.53 303.97C182.53 305.964 184.146 307.58 186.14 307.58Z" fill="#E0E0E0"/>
<path d="M308.73 304C308.73 304.714 308.518 305.412 308.122 306.006C307.725 306.599 307.161 307.062 306.501 307.335C305.842 307.608 305.116 307.68 304.416 307.541C303.715 307.401 303.072 307.058 302.567 306.553C302.062 306.048 301.719 305.405 301.579 304.704C301.44 304.004 301.512 303.278 301.785 302.618C302.058 301.959 302.521 301.395 303.114 300.998C303.708 300.602 304.406 300.39 305.12 300.39C306.077 300.39 306.996 300.77 307.673 301.447C308.35 302.124 308.73 303.043 308.73 304Z" fill="#E0E0E0"/>
<path d="M249.24 265.83C249.24 266.544 249.028 267.242 248.632 267.836C248.235 268.429 247.671 268.892 247.012 269.165C246.352 269.438 245.626 269.51 244.926 269.371C244.225 269.231 243.582 268.887 243.077 268.383C242.572 267.878 242.229 267.235 242.089 266.534C241.95 265.834 242.022 265.108 242.295 264.448C242.568 263.789 243.031 263.225 243.624 262.828C244.218 262.432 244.916 262.22 245.63 262.22C246.104 262.22 246.574 262.313 247.012 262.495C247.449 262.676 247.847 262.942 248.183 263.277C248.518 263.613 248.784 264.011 248.965 264.448C249.147 264.886 249.24 265.356 249.24 265.83Z" fill="#E0E0E0"/>
<path d="M245.63 307.58C247.624 307.58 249.24 305.964 249.24 303.97C249.24 301.976 247.624 300.36 245.63 300.36C243.636 300.36 242.02 301.976 242.02 303.97C242.02 305.964 243.636 307.58 245.63 307.58Z" fill="#E0E0E0"/>
<path d="M320.16 230.5C320.16 234.165 318.704 237.68 316.112 240.272C313.52 242.864 310.005 244.32 306.34 244.32C302.675 244.32 299.16 242.864 296.568 240.272C293.976 237.68 292.52 234.165 292.52 230.5H320.16Z" fill="#F0F0F0"/>
<path d="M210.89 228C210.89 232.32 209.174 236.464 206.119 239.519C203.064 242.574 198.92 244.29 194.6 244.29C190.28 244.29 186.136 242.574 183.081 239.519C180.026 236.464 178.31 232.32 178.31 228H210.89Z" fill="#F0F0F0"/>
<path d="M280.92 234.73C280.92 237.273 279.91 239.713 278.111 241.511C276.313 243.31 273.873 244.32 271.33 244.32C268.787 244.32 266.347 243.31 264.549 241.511C262.75 239.713 261.74 237.273 261.74 234.73H280.92Z" fill="#F0F0F0"/>
<path d="M348.15 60.36C346.02 58.23 341.92 50.16 345.85 46.36C349.78 42.56 353.28 46.01 353.55 47.86C353.82 49.71 353.1 65.3 348.15 60.36Z" fill="#263238"/>
<path d="M347.25 350.65L338.32 350.73L335.89 330.09L344.81 330.01L347.25 350.65Z" fill="#FF8B7B"/>
<path d="M338.31 349.7L348.05 349.61C348.23 349.613 348.404 349.672 348.548 349.78C348.691 349.888 348.797 350.038 348.85 350.21L351.21 358.12C351.273 358.304 351.29 358.501 351.261 358.693C351.231 358.885 351.156 359.067 351.041 359.224C350.927 359.381 350.776 359.508 350.601 359.595C350.427 359.681 350.234 359.724 350.04 359.72C346.53 359.72 341.43 359.53 337.04 359.57C331.88 359.57 329.58 359.93 323.52 359.99C319.86 359.99 318.52 356.33 320.07 355.99C326.94 354.4 330.49 354.19 336.24 350.42C336.845 349.984 337.565 349.733 338.31 349.7Z" fill="#263238"/>
<path opacity="0.2" d="M335.89 330.1L337.15 340.74L346.07 340.66L344.82 330.02L335.89 330.1Z" fill="black"/>
<path d="M334.62 351.29C335.583 351.273 336.541 351.156 337.48 350.94C337.524 350.934 337.565 350.912 337.596 350.88C337.627 350.847 337.646 350.805 337.65 350.76C337.654 350.717 337.645 350.674 337.623 350.636C337.602 350.598 337.569 350.568 337.53 350.55C337.11 350.34 333.36 348.55 332.33 349.18C332.235 349.241 332.157 349.325 332.104 349.425C332.052 349.525 332.026 349.637 332.03 349.75C332.028 349.942 332.07 350.133 332.153 350.306C332.236 350.48 332.358 350.632 332.51 350.75C333.135 351.156 333.877 351.346 334.62 351.29ZM336.76 350.65C334.83 350.99 333.36 350.92 332.76 350.44C332.656 350.359 332.574 350.254 332.52 350.133C332.465 350.013 332.442 349.882 332.45 349.75C332.444 349.709 332.45 349.667 332.468 349.63C332.486 349.593 332.514 349.561 332.55 349.54C333.11 349.2 335.23 350 336.76 350.65Z" fill="#407BFF"/>
<path d="M337.44 351C337.487 350.997 337.533 350.979 337.57 350.95C337.6 350.927 337.623 350.896 337.635 350.861C337.648 350.825 337.65 350.787 337.64 350.75C337.64 350.59 336.94 346.75 334.82 346.99C334.26 347.05 334.1 347.34 334.07 347.56C333.92 348.56 336.21 350.5 337.35 350.98L337.44 351ZM335 347.4C336.28 347.4 336.92 349.49 337.14 350.4C335.96 349.74 334.4 348.22 334.49 347.62C334.49 347.62 334.49 347.45 334.87 347.41L335 347.4Z" fill="#407BFF"/>
<path d="M340.94 105.43L340.02 106.43L339.16 107.28C338.59 107.84 338 108.37 337.41 108.89C336.237 109.943 335.037 110.943 333.81 111.89C331.334 113.857 328.729 115.655 326.01 117.27C324.64 118.08 323.23 118.85 321.8 119.58C320.37 120.31 318.86 120.94 317.34 121.58C314.223 122.823 310.976 123.712 307.66 124.23L306.92 124.34C306.439 124.402 305.955 124.432 305.47 124.43C304.356 124.42 303.254 124.203 302.22 123.79C301.194 123.378 300.255 122.778 299.45 122.02C298.809 121.409 298.251 120.716 297.79 119.96C297.151 118.863 296.67 117.681 296.36 116.45C296.118 115.496 295.94 114.528 295.83 113.55C295.648 111.86 295.598 110.158 295.68 108.46C295.75 106.84 295.88 105.28 296.06 103.75C296.44 100.68 296.98 97.75 297.64 94.75C298.3 91.75 299.05 88.98 300.02 86.08L306.59 87.38C306.35 93 306.08 98.76 306.26 104.2C306.293 106.726 306.561 109.244 307.06 111.72C307.159 112.177 307.296 112.626 307.47 113.06C307.61 113.4 307.78 113.61 307.77 113.52C307.712 113.368 307.62 113.231 307.5 113.12C307.228 112.857 306.909 112.646 306.56 112.5C306.201 112.349 305.819 112.258 305.43 112.23C305.25 112.23 305.17 112.23 305.06 112.23H305.17L305.38 112.17C307.749 111.561 310.053 110.724 312.26 109.67C314.569 108.556 316.804 107.293 318.95 105.89C321.12 104.45 323.26 102.89 325.32 101.24C326.32 100.42 327.37 99.56 328.32 98.69L329.78 97.3699L330.48 96.72L331.09 96.14L340.94 105.43Z" fill="#FF8B7B"/>
<path d="M346.23 101.9C345.89 92.4699 338.15 89.1899 328.45 95.6199C324.174 98.3312 320.057 101.286 316.12 104.47L322.39 124.61C322.39 124.61 334.39 120.8 341.33 113.32C346 108.24 346.35 105.11 346.23 101.9Z" fill="#263238"/>
<path opacity="0.2" d="M334.42 105.92C334.42 105.92 328.63 114.2 326.58 123C329.427 121.786 332.169 120.341 334.78 118.68L334.42 105.92Z" fill="black"/>
<path d="M306.26 90.37L309.62 82.78L300.11 80C300.11 80 298.48 83.63 299.41 89.86L306.26 90.37Z" fill="#FF8B7B"/>
<path d="M310.63 73.88L302.36 74.87L300.11 80L309.62 82.78L310.63 73.88Z" fill="#FF8B7B"/>
<path d="M334.48 170.26C334.48 170.26 328.34 221.72 327.66 249.26C326.96 277.87 332.57 335.58 332.57 335.58L348.68 335.24C348.68 335.24 350.62 273.46 352.96 245.15C355.5 214.29 361.9 169.7 361.9 169.7L334.48 170.26Z" fill="#407BFF"/>
<path opacity="0.6" d="M334.48 170.26C334.48 170.26 328.34 221.72 327.66 249.26C326.96 277.87 332.57 335.58 332.57 335.58L348.68 335.24C348.68 335.24 350.62 273.46 352.96 245.15C355.5 214.29 361.9 169.7 361.9 169.7L334.48 170.26Z" fill="white"/>
<path opacity="0.2" d="M353.67 184.83C346.47 200.7 348.4 236.15 352.49 251.35C352.64 249.14 352.8 247.05 352.96 245.12C354.63 224.78 357.96 198.49 360.07 182.92C358.11 180.08 355.92 179.86 353.67 184.83Z" fill="black"/>
<path d="M350.66 335.93L331.72 336.31L330.32 330.02L350.43 329.97L350.66 335.93Z" fill="#407BFF"/>
<path d="M387.04 350.65L378.12 350.73L375.69 330.09L384.61 330.01L387.04 350.65Z" fill="#FF8B7B"/>
<path d="M378.1 349.7L387.85 349.61C388.029 349.614 388.203 349.674 388.346 349.782C388.49 349.889 388.596 350.039 388.65 350.21L391.01 358.12C391.07 358.304 391.086 358.5 391.056 358.691C391.025 358.882 390.95 359.064 390.835 359.22C390.721 359.377 390.571 359.503 390.398 359.59C390.225 359.677 390.034 359.722 389.84 359.72C386.32 359.72 381.23 359.53 376.84 359.57C371.68 359.57 369.37 359.93 363.32 359.99C359.66 359.99 358.32 356.33 359.87 355.99C366.73 354.4 370.28 354.19 376.04 350.42C376.642 349.984 377.358 349.733 378.1 349.7Z" fill="#263238"/>
<path opacity="0.2" d="M375.69 330.1L376.94 340.74L385.87 340.66L384.62 330.02L375.69 330.1Z" fill="black"/>
<path d="M374.42 351.29C375.383 351.272 376.341 351.154 377.28 350.94C377.323 350.933 377.363 350.911 377.392 350.879C377.421 350.846 377.438 350.804 377.44 350.76C377.446 350.718 377.439 350.675 377.419 350.637C377.4 350.599 377.368 350.569 377.33 350.55C376.9 350.34 373.15 348.55 372.13 349.18C372.033 349.239 371.954 349.324 371.902 349.424C371.849 349.524 371.824 349.637 371.83 349.75C371.828 349.941 371.869 350.131 371.951 350.304C372.032 350.477 372.151 350.63 372.3 350.75C372.93 351.155 373.674 351.344 374.42 351.29ZM376.56 350.65C374.63 350.99 373.16 350.92 372.56 350.44C372.457 350.358 372.374 350.253 372.319 350.133C372.263 350.013 372.236 349.882 372.24 349.75C372.234 349.709 372.24 349.667 372.258 349.63C372.276 349.593 372.304 349.561 372.34 349.54C372.9 349.2 375 350 376.56 350.65Z" fill="#407BFF"/>
<path d="M377.23 351C377.261 350.999 377.291 350.991 377.319 350.978C377.346 350.964 377.371 350.945 377.391 350.922C377.41 350.898 377.425 350.871 377.433 350.841C377.442 350.812 377.444 350.781 377.44 350.75C377.44 350.59 376.74 346.75 374.62 346.99C374.06 347.05 373.9 347.34 373.86 347.56C373.72 348.56 376.01 350.5 377.15 350.98L377.23 351ZM374.8 347.4C376.07 347.4 376.72 349.49 376.94 350.4C375.76 349.74 374.19 348.22 374.28 347.62C374.28 347.62 374.28 347.45 374.66 347.41L374.8 347.4Z" fill="#407BFF"/>
<path d="M350.2 169.92C350.2 169.92 354.65 225.29 357.9 252.61C361.27 281.03 372.37 335.55 372.37 335.55L388.48 335.21C388.48 335.21 384.06 273.31 382.35 244.95C380.48 214 380 169.24 380 169.24L350.2 169.92Z" fill="#407BFF"/>
<path opacity="0.6" d="M350.2 169.92C350.2 169.92 354.65 225.29 357.9 252.61C361.27 281.03 372.37 335.55 372.37 335.55L388.48 335.21C388.48 335.21 384.06 273.31 382.35 244.95C380.48 214 380 169.24 380 169.24L350.2 169.92Z" fill="white"/>
<path d="M390.46 335.93L371.51 336.31L370.12 330.02L390.23 329.97L390.46 335.93Z" fill="#407BFF"/>
<path d="M333.37 93.15C333.37 93.15 326.78 117.61 334.48 170.26C348.86 169.95 373.01 169.39 380 169.26C380.18 161.93 374.77 125.99 381.1 91.34C376.546 90.5537 371.94 90.1058 367.32 90C360.557 89.7531 353.786 89.9 347.04 90.44C342.42 90.9867 337.849 91.8927 333.37 93.15Z" fill="#263238"/>
<path opacity="0.2" d="M378.34 116L370.89 109.83C371.38 114.65 375.74 126.46 378.04 132.44C378 127.2 378.05 121.67 378.34 116Z" fill="black"/>
<path d="M351.69 107.33L343.56 123.42C343.388 123.758 343.328 124.142 343.388 124.516C343.449 124.89 343.626 125.235 343.895 125.502C344.164 125.769 344.511 125.944 344.886 126.001C345.26 126.058 345.644 125.995 345.98 125.82L351.29 122.9C351.579 122.745 351.905 122.674 352.232 122.695C352.559 122.716 352.874 122.829 353.14 123.02L358.37 126.79C358.67 127.009 359.033 127.125 359.405 127.121C359.776 127.117 360.136 126.994 360.432 126.77C360.729 126.546 360.945 126.232 361.049 125.876C361.153 125.519 361.139 125.138 361.01 124.79L354.9 107.61C354.794 107.283 354.594 106.995 354.325 106.781C354.056 106.567 353.73 106.437 353.388 106.407C353.045 106.378 352.702 106.449 352.4 106.613C352.098 106.777 351.851 107.027 351.69 107.33Z" fill="white"/>
<path d="M364.82 67.16C363.68 73.72 362.66 85.7 367.32 89.95C367.32 89.95 365.96 95.89 353.55 97.95C345.21 95.27 347.04 90.43 347.04 90.43C354.28 88.53 353.97 83.14 352.6 78.1L364.82 67.16Z" fill="#FF8B7B"/>
<path opacity="0.2" d="M359.84 71.61L352.6 78.05C352.937 79.2241 353.171 80.4253 353.3 81.64C356.08 81.18 359.83 78.04 360.06 75.13C360.202 73.9531 360.127 72.7601 359.84 71.61Z" fill="black"/>
<path d="M368.79 59.09C366.38 67.61 365.41 72.72 360.09 76.21C352.09 81.45 342.28 75.21 342.09 66.12C341.91 57.96 345.87 45.39 355.09 43.79C357.115 43.4307 359.199 43.5945 361.143 44.2658C363.087 44.9371 364.827 46.0937 366.199 47.6259C367.572 49.1582 368.53 51.0154 368.983 53.0217C369.436 55.0279 369.37 57.1166 368.79 59.09Z" fill="#FF8B7B"/>
<path d="M363.66 64.3101C362.54 61.5901 361.73 52.6301 366.4 50.4301C371.07 48.2301 375.92 53.6001 374.69 56.1401C372.8 60.0801 366.26 70.6101 363.66 64.3101Z" fill="#263238"/>
<path d="M366.45 53.59C365.3 50.59 351.59 48.89 349.67 45.66C347.39 41.82 356.74 41.36 363.17 43.31C368.82 45.03 372.59 46.69 371.93 50.89C371.56 53.27 366.45 53.59 366.45 53.59Z" fill="#263238"/>
<path d="M369.43 50.5C369.43 50.5 372.43 51.32 374.07 49.12C373.55 51.3 371 53.5 369.43 50.5Z" fill="#263238"/>
<path d="M355.7 41.25C351.58 38.05 345.97 41.81 346.5 45.98C347.03 50.15 360.92 53.32 360.92 53.32C360.92 53.32 361.17 45.5 355.7 41.25Z" fill="#263238"/>
<path d="M346.51 46C347.14 48.92 349.27 51.21 353.58 52.91C351.085 51.0654 349.195 48.521 348.15 45.6L346.51 46Z" fill="#263238"/>
<path d="M355.16 58.66C355.01 59.37 354.52 59.86 354.06 59.76C353.6 59.66 353.35 59 353.5 58.3C353.65 57.6 354.15 57.11 354.61 57.21C355.07 57.31 355.32 58 355.16 58.66Z" fill="#263238"/>
<path d="M347.22 56.94C347.06 57.64 346.57 58.13 346.11 58.03C345.65 57.93 345.4 57.28 345.55 56.58C345.7 55.88 346.2 55.39 346.66 55.48C347.12 55.57 347.37 56.24 347.22 56.94Z" fill="#263238"/>
<path d="M349.67 57.84C348.365 59.8071 346.793 61.584 345 63.12C346 64.55 348.23 64.48 348.23 64.48L349.67 57.84Z" fill="#FF5652"/>
<path d="M349.85 66.87C350.789 67.1032 351.771 67.1059 352.711 66.8778C353.651 66.6497 354.522 66.1976 355.25 65.56C355.27 65.5404 355.286 65.5171 355.297 65.4913C355.307 65.4656 355.313 65.4379 355.313 65.41C355.313 65.3821 355.307 65.3544 355.297 65.3286C355.286 65.3029 355.27 65.2795 355.25 65.26C355.209 65.222 355.156 65.2009 355.1 65.2009C355.044 65.2009 354.991 65.222 354.95 65.26C354.267 65.8347 353.459 66.2416 352.591 66.4482C351.723 66.6548 350.818 66.6554 349.95 66.45C349.894 66.4381 349.836 66.4487 349.788 66.4797C349.741 66.5106 349.707 66.5593 349.695 66.615C349.683 66.6707 349.694 66.7288 349.725 66.7767C349.756 66.8245 349.804 66.8581 349.86 66.87H349.85Z" fill="#263238"/>
<path d="M358.11 56.62C358.187 56.6353 358.266 56.6294 358.34 56.603C358.413 56.5765 358.479 56.5304 358.528 56.4697C358.577 56.409 358.609 56.336 358.62 56.2585C358.631 56.181 358.621 56.102 358.59 56.03C358.32 55.4141 357.907 54.8715 357.385 54.4471C356.863 54.0228 356.248 53.7289 355.59 53.59C355.479 53.5756 355.366 53.6052 355.277 53.6724C355.187 53.7397 355.127 53.8393 355.11 53.95C355.101 54.0045 355.104 54.0601 355.117 54.1138C355.13 54.1674 355.153 54.2179 355.186 54.2625C355.218 54.3071 355.259 54.3448 355.306 54.3735C355.353 54.4023 355.405 54.4215 355.46 54.43C355.979 54.544 356.463 54.7805 356.872 55.1197C357.281 55.459 357.602 55.8911 357.81 56.38C357.838 56.4405 357.88 56.4937 357.932 56.5354C357.984 56.577 358.045 56.606 358.11 56.62Z" fill="#263238"/>
<path d="M344.32 53.45C344.398 53.4717 344.482 53.469 344.558 53.4421C344.635 53.4153 344.702 53.3658 344.75 53.3C345.067 52.8752 345.479 52.5308 345.953 52.2945C346.427 52.0583 346.95 51.9369 347.48 51.94C347.591 51.9506 347.702 51.9165 347.789 51.8452C347.875 51.774 347.929 51.6714 347.94 51.56C347.951 51.4486 347.917 51.3375 347.845 51.2513C347.774 51.165 347.671 51.1106 347.56 51.1C346.889 51.0801 346.223 51.2224 345.619 51.5149C345.015 51.8074 344.49 52.2414 344.09 52.78C344.055 52.8228 344.028 52.8723 344.012 52.9256C343.997 52.9789 343.992 53.0348 343.998 53.09C344.005 53.1452 344.023 53.1984 344.05 53.2466C344.078 53.2947 344.115 53.3367 344.16 53.37C344.205 53.4101 344.261 53.4376 344.32 53.45Z" fill="#263238"/>
<path d="M383.28 98.16C385.1 101.34 386.62 104.42 388.2 107.59C389.78 110.76 391.2 113.95 392.55 117.21C393.9 120.47 395.21 123.78 396.35 127.21C397.535 130.631 398.537 134.112 399.35 137.64L399.96 140.37C400.227 141.652 400.341 142.961 400.3 144.27C400.215 146.702 399.676 149.097 398.71 151.33C397.012 155.094 394.597 158.49 391.6 161.33C388.927 163.911 386.014 166.232 382.9 168.26C381.39 169.26 379.83 170.18 378.26 171.06C376.69 171.94 375.13 172.75 373.38 173.52L370.06 167.71C371.27 166.71 372.6 165.71 373.84 164.63C375.08 163.55 376.29 162.45 377.49 161.35C379.807 159.2 381.957 156.877 383.92 154.4C385.666 152.276 387.02 149.858 387.92 147.26C388.229 146.292 388.352 145.274 388.28 144.26C388.251 143.852 388.174 143.45 388.05 143.06L387.37 140.82C385.349 134.607 382.945 128.525 380.17 122.61C378.8 119.61 377.34 116.61 375.88 113.61C374.42 110.61 372.88 107.61 371.39 104.76L383.28 98.16Z" fill="#FF8B7B"/>
<path d="M381.44 91.39C389.78 93.19 395.58 114.95 395.58 114.95L380.67 128.48C375.929 123.206 372.201 117.104 369.67 110.48C365.72 99.59 372.52 89.45 381.44 91.39Z" fill="#263238"/>
<path d="M371.87 166.68L362.28 166.78L368.28 176.45C368.28 176.45 375.11 174.76 375.72 171.33L371.87 166.68Z" fill="#FF8B7B"/>
<path d="M356.31 172.49L361.6 180.25L368.23 176.45L362.28 166.78L356.31 172.49Z" fill="#FF8B7B"/>
<path d="M371.41 66.89C370.345 68.8503 368.547 70.3098 366.41 70.95C363.57 71.78 362.12 69.25 362.88 66.56C363.57 64.14 365.88 60.79 368.72 61.14C371.56 61.49 372.68 64.48 371.41 66.89Z" fill="#FF8B7B"/>
<path d="M286.413 232.347L275.752 233.12L275.824 234.117L286.486 233.344L286.413 232.347Z" fill="#407BFF"/>
<path d="M295.994 231.656L290.758 232.036L290.83 233.033L296.066 232.653L295.994 231.656Z" fill="#407BFF"/>
<path d="M342 114.27L165.44 127C161.765 127.287 158.352 129.011 155.941 131.799C153.529 134.586 152.314 138.212 152.56 141.89L158.56 225.11C158.844 228.79 160.57 232.209 163.362 234.623C166.155 237.037 169.787 238.251 173.47 238L183.47 237.28C184.197 237.228 184.914 237.466 185.465 237.942C186.016 238.418 186.356 239.094 186.41 239.82L187.53 255.24C187.548 255.539 187.655 255.825 187.838 256.062C188.02 256.3 188.269 256.477 188.553 256.571C188.837 256.666 189.142 256.674 189.43 256.593C189.719 256.513 189.976 256.348 190.17 256.12L206.91 236.77C207.614 235.96 208.609 235.46 209.68 235.38L350 225.27C353.676 224.986 357.092 223.263 359.506 220.475C361.919 217.687 363.135 214.059 362.89 210.38L356.89 127.16C356.606 123.484 354.883 120.068 352.095 117.654C349.307 115.241 345.679 114.025 342 114.27Z" fill="#407BFF"/>
<path d="M191.23 165.2L200.77 164.51L201.55 175.31L211.97 174.56L211.19 163.76L220.77 163.06L223 193.92L213.42 194.61L212.52 182.13L202.1 182.89L203 195.37L193.47 196.06L191.23 165.2Z" fill="white"/>
<path opacity="0.2" d="M165.44 127C161.765 127.287 158.352 129.011 155.941 131.799C153.529 134.586 152.314 138.212 152.56 141.89L158.56 225.11C158.844 228.79 160.57 232.209 163.362 234.623C166.155 237.037 169.787 238.251 173.47 238L174.94 237.89C177.382 237.714 179.698 236.736 181.528 235.108C183.358 233.481 184.599 231.295 185.06 228.89L205.17 124.13L165.44 127Z" fill="black"/>
<path d="M252.93 182.66L235.75 183.9C235.882 185.013 236.349 186.059 237.09 186.9C237.515 187.347 238.038 187.69 238.617 187.902C239.196 188.113 239.817 188.188 240.43 188.12C241.272 188.06 242.085 187.784 242.79 187.32C243.342 186.902 243.813 186.387 244.18 185.8L252.68 185.97C251.755 188.066 250.253 189.855 248.35 191.13C246.603 192.237 244.023 192.903 240.61 193.13C238.224 193.408 235.805 193.152 233.53 192.38C231.706 191.614 230.14 190.34 229.02 188.71C227.735 186.854 226.997 184.675 226.89 182.42C226.712 180.854 226.863 179.268 227.335 177.765C227.807 176.261 228.589 174.873 229.63 173.69C231.71 171.37 234.71 170.067 238.63 169.78C241.225 169.472 243.856 169.78 246.31 170.68C248.189 171.483 249.771 172.849 250.84 174.59C252.063 176.753 252.749 179.177 252.84 181.66L252.93 182.66ZM243.93 179.18C243.808 177.88 243.248 176.659 242.34 175.72C241.883 175.368 241.358 175.114 240.799 174.973C240.239 174.833 239.657 174.809 239.088 174.902C238.519 174.996 237.975 175.206 237.49 175.519C237.005 175.831 236.59 176.24 236.27 176.72C235.736 177.661 235.467 178.729 235.49 179.81L243.93 179.18Z" fill="white"/>
<path d="M255.58 160.55L264.17 159.93L266.4 190.78L257.81 191.4L255.58 160.55Z" fill="white"/>
<path d="M269.93 159.51L278.52 158.89L280.75 189.74L272.17 190.36L269.93 159.51Z" fill="white"/>
<path d="M284.37 178.31C284.208 176.745 284.377 175.163 284.866 173.668C285.355 172.172 286.154 170.796 287.21 169.63C289.35 167.25 292.38 165.917 296.3 165.63C300.767 165.31 304.24 166.363 306.72 168.79C308.78 170.962 309.97 173.816 310.064 176.808C310.158 179.8 309.149 182.723 307.23 185.02C305.11 187.38 302.037 188.713 298.01 189.02C294.882 189.395 291.722 188.651 289.09 186.92C287.69 185.948 286.535 184.665 285.716 183.171C284.897 181.677 284.436 180.013 284.37 178.31ZM292.96 177.67C292.944 179.249 293.486 180.782 294.49 182C294.895 182.415 295.385 182.736 295.927 182.943C296.469 183.149 297.049 183.235 297.627 183.195C298.205 183.156 298.768 182.99 299.276 182.711C299.784 182.432 300.226 182.046 300.57 181.58C301.378 180.188 301.682 178.56 301.43 176.97C301.44 175.423 300.905 173.922 299.92 172.73C299.535 172.308 299.058 171.98 298.525 171.771C297.993 171.563 297.42 171.481 296.85 171.53C296.256 171.558 295.676 171.722 295.156 172.01C294.636 172.298 294.189 172.701 293.85 173.19C293.044 174.535 292.743 176.123 293 177.67H292.96Z" fill="white"/>
<path d="M312.77 156.41L321.92 155.75L322.43 162.75L321.68 177L316.02 177.41L313.27 163.41L312.77 156.41ZM314.77 179.69L323.31 179.07L323.86 186.63L315.31 187.24L314.77 179.69Z" fill="white"/>
<path d="M163 99.6C162.955 101.064 163.032 102.529 163.23 103.98C154.169 107.006 144.505 107.772 135.08 106.21C135.532 104.499 135.807 102.747 135.9 100.98C135.585 102.759 134.966 104.471 134.07 106.04C132.29 105.7 131.29 105.41 131.29 105.41C131.29 105.41 133.11 95.57 129.83 88.41C126.55 81.25 128.19 77.25 130.67 76.12C135.27 61.98 152.56 64.21 158.41 69.95C165.83 77.23 165.87 97.74 167.19 102.43C166.1 102.9 165.03 103.33 163.96 103.71C163.424 102.4 163.1 101.012 163 99.6Z" fill="#263238"/>
<path d="M170.15 121.61L171.05 124.46C171.38 125.46 171.71 126.46 172.05 127.41C172.72 129.41 173.42 131.41 174.17 133.33C174.92 135.25 175.64 137.27 176.42 139.23L177.58 142.23L177.87 142.97L177.94 143.14C177.816 143.032 177.674 142.947 177.52 142.89C177.3 142.81 177.21 142.89 177.35 142.89C177.591 142.889 177.83 142.852 178.06 142.78C178.842 142.532 179.593 142.197 180.3 141.78C182.005 140.786 183.636 139.67 185.18 138.44C186.8 137.18 188.39 135.83 189.95 134.44C191.51 133.05 193.08 131.6 194.59 130.18L197.66 132.78C196.38 134.62 195.03 136.3 193.66 138.01C192.29 139.72 190.75 141.32 189.17 142.91C187.544 144.57 185.773 146.082 183.88 147.43C182.797 148.189 181.633 148.826 180.41 149.33C179.634 149.641 178.82 149.85 177.99 149.95C176.863 150.09 175.719 149.935 174.67 149.5C173.527 149.013 172.552 148.199 171.87 147.16C171.72 146.93 171.58 146.7 171.47 146.49L171.2 145.95L170.84 145.22C170.37 144.22 169.84 143.22 169.43 142.28C168.52 140.28 167.61 138.28 166.78 136.28C165.95 134.28 165.14 132.22 164.37 130.16C164.01 129.16 163.65 128.07 163.31 127.02C162.97 125.97 162.64 124.94 162.31 123.71L170.15 121.61Z" fill="#FFC3BD"/>
<path d="M167.78 112.73C171.23 113.61 173.64 127.79 173.64 127.79L164.14 134.25C164.14 134.25 155.04 119.94 157.69 116.15C160.45 112.21 162.75 111.45 167.78 112.73Z" fill="#407BFF"/>
<path d="M167.78 112.73C171.23 113.61 173.64 127.79 173.64 127.79L164.14 134.25C164.14 134.25 155.04 119.94 157.69 116.15C160.45 112.21 162.75 111.45 167.78 112.73Z" fill="#407BFF"/>
<path opacity="0.4" d="M167.78 112.73C171.23 113.61 173.64 127.79 173.64 127.79L164.14 134.25C164.14 134.25 155.04 119.94 157.69 116.15C160.45 112.21 162.75 111.45 167.78 112.73Z" fill="white"/>
<path opacity="0.3" d="M167.47 115.9L170.12 130.19L164.78 133.81L167.47 115.9Z" fill="black"/>
<path d="M194.43 130.52L197.6 122.88L201.51 130.52C201.51 130.52 198.97 134.32 195.62 133.39L194.43 130.52Z" fill="#FFC3BD"/>
<path d="M201.09 122.09L206.11 124.11L201.51 130.52L197.59 122.88L201.09 122.09Z" fill="#FFC3BD"/>
<path d="M149.13 351.45H157.5L158.06 332.08H149.69L149.13 351.45Z" fill="#FFC3BD"/>
<path d="M93.01 326.5L100.7 329.78L110.77 313.02L103.07 309.74L93.01 326.5Z" fill="#FFC3BD"/>
<path d="M102.18 328.64L94.18 323.72C94.0432 323.632 93.8787 323.598 93.7182 323.623C93.5576 323.649 93.4123 323.734 93.31 323.86L88.5 329.63C88.3803 329.781 88.2943 329.956 88.2479 330.143C88.2014 330.33 88.1955 330.525 88.2305 330.714C88.2656 330.904 88.3408 331.083 88.4511 331.241C88.5614 331.399 88.7042 331.532 88.87 331.63C91.69 333.3 93.13 333.96 96.65 336.12C98.82 337.46 101.84 339.62 104.83 341.46C107.82 343.3 109.83 340.46 108.72 339.41C103.87 334.78 104.01 332.58 103.1 329.84C102.949 329.342 102.622 328.915 102.18 328.64Z" fill="#263238"/>
<path d="M157.78 350.48H148.39C148.228 350.478 148.071 350.535 147.948 350.64C147.825 350.744 147.744 350.89 147.72 351.05L146.65 358.49C146.624 358.681 146.64 358.875 146.696 359.059C146.752 359.243 146.848 359.413 146.976 359.557C147.105 359.7 147.263 359.814 147.439 359.891C147.616 359.967 147.807 360.005 148 360C151.28 359.95 152.86 359.75 157 359.75C159.54 359.75 164.8 360.02 168.31 360.02C171.82 360.02 172 356.55 170.54 356.23C163.99 354.82 161.41 352.88 159.2 351.03C158.809 350.681 158.304 350.486 157.78 350.48Z" fill="#263238"/>
<path opacity="0.2" d="M158.05 332.09L157.77 342.07H149.4L149.69 332.09H158.05Z" fill="black"/>
<path opacity="0.2" d="M103.07 309.75L110.76 313.02L105.57 321.66L97.88 318.38L103.07 309.75Z" fill="black"/>
<path d="M167.78 112.73C167.78 112.73 171.78 114.13 163.78 163.2H129.78C130.35 149.38 130.37 140.86 123.78 112.49C128.534 111.507 133.354 110.872 138.2 110.59C143.337 110.22 148.493 110.22 153.63 110.59C160.27 111.19 167.78 112.73 167.78 112.73Z" fill="#407BFF"/>
<path opacity="0.4" d="M167.78 112.73C167.78 112.73 171.78 114.13 163.78 163.2H129.78C130.35 149.38 130.37 140.86 123.78 112.49C128.534 111.507 133.354 110.872 138.2 110.59C143.337 110.22 148.493 110.22 153.63 110.59C160.27 111.19 167.78 112.73 167.78 112.73Z" fill="white"/>
<path d="M138.22 110.58C143.357 110.219 148.513 110.219 153.65 110.58C154.48 110.66 155.33 110.75 156.17 110.85C156.52 111.376 156.744 111.974 156.825 112.6C156.907 113.226 156.843 113.863 156.64 114.46C155.55 117.15 151.64 117.46 148.8 117.46C138.29 117.46 136.51 111.32 136.44 111.06L136.34 110.69L138.22 110.58Z" fill="white"/>
<path d="M139.75 93.22C140.75 98.22 141.7 107.28 138.22 110.59C138.22 110.59 139.58 115.59 148.8 115.59C158.94 115.59 153.65 110.59 153.65 110.59C148.11 109.27 148.26 105.16 149.22 101.31L139.75 93.22Z" fill="#FFC3BD"/>
<path d="M140.76 89.6899C139.57 93.6199 141.22 102.92 143.67 106.52C138.84 103.75 137.21 95.3099 137.21 95.3099L140.76 89.6899Z" fill="#263238"/>
<path opacity="0.2" d="M143.61 96.52L149.22 101.3C148.974 102.196 148.813 103.114 148.74 104.04C146.63 103.73 143.74 101.41 143.5 99.2C143.376 98.3073 143.413 97.3995 143.61 96.52Z" fill="black"/>
<path d="M135.17 84.3599C137.11 92.4299 137.75 95.8899 142.61 99.3599C149.92 104.57 159.41 100.43 159.92 91.9399C160.38 84.2999 157.14 72.3899 148.59 70.5499C146.706 70.134 144.747 70.2064 142.899 70.7603C141.051 71.3142 139.376 72.3311 138.031 73.7147C136.687 75.0982 135.718 76.8024 135.217 78.6655C134.717 80.5286 134.7 82.4888 135.17 84.3599Z" fill="#FFC3BD"/>
<path d="M163.79 163.2C163.79 163.2 170.38 227.62 169.79 253.12C169.22 279.64 159.5 340.12 159.5 340.12H148.2C148.2 340.12 149.99 281.17 148.99 255.12C147.9 226.72 138.88 163.18 138.88 163.18L163.79 163.2Z" fill="#407BFF"/>
<path opacity="0.4" d="M163.79 163.2C163.79 163.2 170.38 227.62 169.79 253.12C169.22 279.64 159.5 340.12 159.5 340.12H148.2C148.2 340.12 149.99 281.17 148.99 255.12C147.9 226.72 138.88 163.18 138.88 163.18L163.79 163.2Z" fill="black"/>
<path d="M147.26 340.54H160.52L161.5 336.31L146.64 335.79L147.26 340.54Z" fill="#407BFF"/>
<path opacity="0.2" d="M149.14 179.23C157.48 196.01 150.81 226.62 147.86 238.01C146.35 220.91 143.8 200.01 141.81 184.64C143.07 176 145.29 171.49 149.14 179.23Z" fill="black"/>
<path d="M154.82 163.2C154.82 163.2 147.12 230.2 141.31 251.67C134.42 277.2 108.19 320.67 108.19 320.67L97.7 316.21C97.7 316.21 113.93 266.85 119.21 253.4C130.46 224.7 120.83 181.93 129.82 163.2H154.82Z" fill="#407BFF"/>
<path opacity="0.4" d="M154.82 163.2C154.82 163.2 147.12 230.2 141.31 251.67C134.42 277.2 108.19 320.67 108.19 320.67L97.7 316.21C97.7 316.21 113.93 266.85 119.21 253.4C130.46 224.7 120.83 181.93 129.82 163.2H154.82Z" fill="black"/>
<path d="M96.25 316.24L109.27 321.78L112.4 318.28L97.38 311.07L96.25 316.24Z" fill="#407BFF"/>
<path d="M148 84.4699C148.12 85.1299 148.56 85.6099 149 85.5299C149.44 85.4499 149.69 84.8499 149.57 84.1899C149.45 83.5299 149.01 83.0499 148.57 83.1199C148.13 83.1899 147.83 83.7999 148 84.4699Z" fill="#263238"/>
<path d="M155.46 83.15C155.57 83.81 156.02 84.29 156.46 84.21C156.9 84.13 157.16 83.53 157.04 82.87C156.92 82.21 156.48 81.73 156.04 81.8C155.6 81.87 155.34 82.48 155.46 83.15Z" fill="#263238"/>
<path d="M155.85 81.88L157.36 81.13C157.36 81.13 156.76 82.52 155.85 81.88Z" fill="#263238"/>
<path d="M153.67 84.64C154.529 86.0514 155.579 87.3369 156.79 88.46C156.493 88.7604 156.135 88.9929 155.739 89.1414C155.344 89.2898 154.921 89.3508 154.5 89.32L153.67 84.64Z" fill="#ED847E"/>
<path d="M151.49 92.4499C151.869 92.4492 152.247 92.4158 152.62 92.3499C152.649 92.3488 152.676 92.3415 152.702 92.3287C152.728 92.3158 152.75 92.2976 152.768 92.2753C152.786 92.253 152.799 92.2272 152.806 92.1995C152.813 92.1718 152.814 92.1429 152.809 92.1148C152.804 92.0866 152.793 92.0599 152.776 92.0364C152.76 92.0129 152.739 91.9931 152.715 91.9785C152.69 91.9638 152.663 91.9546 152.634 91.9514C152.606 91.9482 152.577 91.9511 152.55 91.9599C151.726 92.124 150.876 92.0909 150.068 91.8632C149.259 91.6355 148.517 91.2198 147.9 90.6499C147.863 90.6133 147.812 90.5928 147.76 90.5928C147.708 90.5928 147.657 90.6133 147.62 90.6499C147.601 90.6677 147.585 90.6894 147.574 90.7135C147.564 90.7376 147.558 90.7636 147.558 90.7899C147.558 90.8163 147.564 90.8423 147.574 90.8664C147.585 90.8905 147.601 90.9121 147.62 90.9299C148.664 91.9198 150.052 92.4649 151.49 92.4499Z" fill="#263238"/>
<path d="M138 79.63C138.219 81.7565 138.552 83.8696 139 85.96C139 85.96 144 79.63 144.83 76.24C144.632 77.5747 144.244 78.8744 143.68 80.1C143.68 80.1 150.41 78.63 151.07 74.19C151.059 76.1777 150.837 78.1587 150.41 80.1C150.41 80.1 156.83 77.58 156.24 73.32C155.65 69.06 145.79 67.41 141.24 68.85C136.69 70.29 132.24 74.96 133.58 81.38C134.92 87.8 137.49 90.21 137.49 90.21C137.49 90.21 135.64 83.74 138 79.63Z" fill="#263238"/>
<path d="M134.82 90.44C135.437 91.9213 136.617 93.0973 138.1 93.71C140.1 94.51 141.29 92.8 140.94 90.82C140.63 89.03 139.22 86.47 137.15 86.51C136.697 86.53 136.256 86.6626 135.867 86.8957C135.478 87.1288 135.154 87.4551 134.922 87.8451C134.691 88.2351 134.561 88.6765 134.543 89.1296C134.525 89.5826 134.62 90.033 134.82 90.44Z" fill="#FFC3BD"/>
<path d="M139.21 76.55C138.21 80.55 140.29 89.75 142.91 93.22C137.91 90.69 135.91 82.33 135.91 82.33L139.21 76.55Z" fill="#263238"/>
<path d="M145.26 82.19C145.311 82.1744 145.359 82.1487 145.4 82.1144C145.442 82.08 145.475 82.0377 145.5 81.99C145.711 81.5389 146.025 81.1442 146.418 80.8382C146.811 80.5323 147.271 80.3238 147.76 80.23C147.863 80.215 147.957 80.1612 148.022 80.0794C148.087 79.9976 148.119 79.8941 148.11 79.79C148.105 79.7377 148.09 79.687 148.065 79.6408C148.04 79.5946 148.006 79.554 147.964 79.5213C147.923 79.4886 147.876 79.4646 147.826 79.4506C147.775 79.4366 147.722 79.433 147.67 79.44C147.05 79.5476 146.464 79.8027 145.963 80.1838C145.462 80.565 145.059 81.0609 144.79 81.63C144.756 81.6995 144.743 81.7774 144.752 81.8542C144.762 81.931 144.793 82.0034 144.843 82.0627C144.893 82.122 144.959 82.1655 145.033 82.1881C145.107 82.2107 145.186 82.2114 145.26 82.19Z" fill="#263238"/>
<path d="M158.19 79.09C158.24 79.0922 158.29 79.0834 158.337 79.0645C158.384 79.0455 158.426 79.0167 158.46 78.98C158.533 78.9052 158.574 78.8047 158.574 78.7C158.574 78.5953 158.533 78.4948 158.46 78.42C158.034 77.9585 157.504 77.6039 156.915 77.385C156.327 77.1661 155.694 77.089 155.07 77.16C155.018 77.1696 154.968 77.1894 154.924 77.2183C154.88 77.2472 154.842 77.2846 154.812 77.3283C154.782 77.372 154.761 77.4211 154.751 77.4729C154.74 77.5247 154.74 77.5781 154.75 77.63C154.772 77.7311 154.832 77.8199 154.918 77.8777C155.003 77.9355 155.108 77.9578 155.21 77.94C155.702 77.885 156.201 77.9469 156.665 78.1206C157.128 78.2944 157.545 78.5751 157.88 78.94C157.917 78.9865 157.964 79.0241 158.018 79.0501C158.072 79.076 158.13 79.0897 158.19 79.09Z" fill="#263238"/>
<path d="M127.93 124.36C126.54 128.75 125.21 133.36 124.08 137.9C122.943 142.382 122.111 146.936 121.59 151.53L121.51 152.37C121.51 152.64 121.51 152.7 121.51 152.94C121.521 153.412 121.558 153.882 121.62 154.35C121.747 155.445 121.931 156.533 122.17 157.61C122.64 159.84 123.17 162.14 123.85 164.42C124.53 166.7 125.11 169.02 125.79 171.32L127.79 178.22L124.08 179.75C121.8 175.39 119.82 170.95 117.97 166.37C117.08 164.07 116.21 161.75 115.49 159.3C115.13 158.08 114.79 156.83 114.49 155.47C114.348 154.75 114.247 154.022 114.19 153.29C114.19 152.92 114.19 152.37 114.19 152.04V151.04C114.275 148.492 114.508 145.951 114.89 143.43C115.22 140.93 115.71 138.49 116.24 136.06C117.28 131.193 118.616 126.394 120.24 121.69L127.93 124.36Z" fill="#FFC3BD"/>
<path d="M123.8 112.49C120.4 113.49 116.31 125.24 116.31 125.24L129.51 134.68C129.51 134.68 134.33 124.9 132.9 120.5C131.41 115.92 127.69 111.31 123.8 112.49Z" fill="#407BFF"/>
<path opacity="0.4" d="M123.8 112.49C120.4 113.49 116.31 125.24 116.31 125.24L129.51 134.68C129.51 134.68 134.33 124.9 132.9 120.5C131.41 115.92 127.69 111.31 123.8 112.49Z" fill="white"/>
<path d="M105.56 331.82C105.723 331.763 105.871 331.67 105.993 331.549C106.116 331.428 106.21 331.282 106.27 331.12C106.328 331.016 106.358 330.899 106.358 330.78C106.358 330.661 106.328 330.544 106.27 330.44C105.67 329.56 102.64 329.63 102.27 329.64C102.232 329.641 102.194 329.652 102.162 329.674C102.13 329.695 102.105 329.725 102.09 329.76C102.07 329.792 102.06 329.828 102.06 329.865C102.06 329.902 102.07 329.938 102.09 329.97C102.88 330.76 104.36 332.05 105.4 331.85L105.56 331.82ZM102.75 330C103.96 330 105.58 330.17 105.9 330.64C105.927 330.685 105.942 330.737 105.942 330.79C105.942 330.843 105.927 330.895 105.9 330.94C105.856 331.061 105.782 331.169 105.686 331.254C105.59 331.339 105.475 331.4 105.35 331.43C104.8 331.57 103.84 331 102.75 330Z" fill="#407BFF"/>
<path d="M103.64 329.79C104.56 329.5 105.54 328.99 105.75 328.42C105.802 328.272 105.803 328.11 105.752 327.962C105.701 327.813 105.602 327.685 105.47 327.6C105.354 327.503 105.216 327.433 105.069 327.397C104.922 327.361 104.768 327.358 104.62 327.39C103.43 327.6 102.15 329.64 102.1 329.73C102.082 329.76 102.073 329.795 102.073 329.83C102.073 329.865 102.082 329.9 102.1 329.93C102.118 329.959 102.143 329.984 102.173 330.001C102.202 330.019 102.236 330.029 102.27 330.03C102.736 330.017 103.197 329.936 103.64 329.79ZM104.56 327.79H104.69C104.784 327.771 104.881 327.772 104.975 327.794C105.068 327.817 105.155 327.86 105.23 327.92C105.43 328.08 105.41 328.2 105.38 328.29C105.18 328.84 103.66 329.5 102.65 329.63C103.109 328.861 103.77 328.232 104.56 327.81V327.79Z" fill="#407BFF"/>
<path d="M160.92 351.94C161.625 351.998 162.329 351.818 162.92 351.43C163.057 351.306 163.162 351.149 163.225 350.975C163.288 350.801 163.307 350.613 163.28 350.43C163.272 350.322 163.237 350.217 163.177 350.126C163.118 350.035 163.036 349.961 162.94 349.91C161.94 349.35 158.59 351.05 158.21 351.24C158.173 351.255 158.142 351.281 158.12 351.314C158.098 351.347 158.086 351.385 158.086 351.425C158.086 351.465 158.098 351.503 158.12 351.536C158.142 351.569 158.173 351.595 158.21 351.61C159.1 351.811 160.008 351.922 160.92 351.94ZM162.41 350.21C162.537 350.202 162.664 350.226 162.78 350.28C162.819 350.302 162.852 350.333 162.875 350.372C162.898 350.411 162.91 350.455 162.91 350.5C162.929 350.615 162.918 350.733 162.88 350.843C162.841 350.953 162.776 351.052 162.69 351.13C162.18 351.59 160.8 351.67 158.95 351.36C160.03 350.784 161.2 350.395 162.41 350.21Z" fill="#407BFF"/>
<path d="M158.33 351.65H158.41C159.41 351.2 161.41 349.4 161.23 348.45C161.23 348.22 161.03 347.95 160.48 347.89C160.283 347.868 160.084 347.887 159.894 347.945C159.705 348.004 159.53 348.101 159.38 348.23C158.38 349.11 158.14 351.36 158.13 351.45C158.129 351.485 158.136 351.52 158.152 351.552C158.168 351.583 158.191 351.61 158.22 351.63C158.253 351.651 158.292 351.658 158.33 351.65ZM160.33 348.26H160.45C160.81 348.26 160.84 348.45 160.84 348.49C160.94 349.06 159.6 350.49 158.58 351.1C158.66 350.15 159.034 349.248 159.65 348.52C159.833 348.353 160.072 348.261 160.32 348.26H160.33Z" fill="#407BFF"/>
<path d="M129.31 161.21L128.45 164.21C128.33 164.44 128.61 164.68 129 164.68H164C164.31 164.68 164.56 164.53 164.58 164.34L164.89 161.34C164.89 161.13 164.64 160.95 164.31 160.95H129.87C129.762 160.942 129.654 160.961 129.556 161.007C129.458 161.052 129.373 161.122 129.31 161.21Z" fill="#263238"/>
<path d="M133.93 165.05H133C132.82 165.05 132.68 164.96 132.69 164.84L133.12 160.84C133.12 160.73 133.3 160.63 133.48 160.63H134.4C134.59 160.63 134.72 160.73 134.71 160.84L134.28 164.84C134.28 165 134.12 165.05 133.93 165.05Z" fill="#407BFF"/>
<path opacity="0.4" d="M133.93 165.05H133C132.82 165.05 132.68 164.96 132.69 164.84L133.12 160.84C133.12 160.73 133.3 160.63 133.48 160.63H134.4C134.59 160.63 134.72 160.73 134.71 160.84L134.28 164.84C134.28 165 134.12 165.05 133.93 165.05Z" fill="black"/>
<path d="M161.36 165.05H160.44C160.26 165.05 160.12 164.96 160.13 164.84L160.57 160.84C160.57 160.73 160.74 160.63 160.92 160.63H161.84C162.03 160.63 162.17 160.73 162.15 160.84L161.72 164.84C161.71 165 161.55 165.05 161.36 165.05Z" fill="#407BFF"/>
<path opacity="0.4" d="M161.36 165.05H160.44C160.26 165.05 160.12 164.96 160.13 164.84L160.57 160.84C160.57 160.73 160.74 160.63 160.92 160.63H161.84C162.03 160.63 162.17 160.73 162.15 160.84L161.72 164.84C161.71 165 161.55 165.05 161.36 165.05Z" fill="black"/>
<path d="M147.65 165.05H146.73C146.54 165.05 146.4 164.96 146.42 164.84L146.85 160.84C146.85 160.73 147.02 160.63 147.21 160.63H148.13C148.31 160.63 148.45 160.73 148.44 160.84L148.01 164.84C148 165 147.83 165.05 147.65 165.05Z" fill="#407BFF"/>
<path opacity="0.4" d="M147.65 165.05H146.73C146.54 165.05 146.4 164.96 146.42 164.84L146.85 160.84C146.85 160.73 147.02 160.63 147.21 160.63H148.13C148.31 160.63 148.45 160.73 148.44 160.84L148.01 164.84C148 165 147.83 165.05 147.65 165.05Z" fill="black"/>
<path d="M148.34 83.19L149.85 82.45C149.85 82.45 149.25 83.84 148.34 83.19Z" fill="#263238"/>
<path d="M127.51 177.09L134.68 182.59L126.37 184.42C126.37 184.42 122.84 180.42 124.06 177.12L127.51 177.09Z" fill="#FFC3BD"/>
<path d="M136.44 189.4L129.4 190.55L125.56 183.33L134.68 182.59L136.44 189.4Z" fill="#FFC3BD"/>
</svg>
