<svg width="196" height="100" viewBox="0 0 196 100" fill="none" xmlns="http://www.w3.org/2000/svg">
<path d="M48.5206 3.20609C49.2275 2.0038 50.1466 0.848843 51.4672 0.282431C52.0092 0.188538 52.5512 0.235866 53.0931 0.235866H79.7779C79 0.895408 78.2458 1.57938 77.7275 2.4748C76.3603 4.71449 75.4405 7.21297 74.5924 9.71144C72.1878 17.2557 70.5137 25.0107 68.887 32.7664C68.1538 36.2799 67.4545 39.8004 66.7893 43.3275C64.7618 54.8313 62.6641 66.3107 60.0473 77.6962C58.7985 82.9534 57.5252 88.2099 55.5924 93.2779C54.6962 95.3763 53.8244 97.6153 52.1038 99.171C51.7031 99.5252 51.3023 99.9725 50.7359 99.9023H27.1634C25.5603 99.8549 23.9809 99.9962 22.3779 99.8313C23.4389 99.0069 24.3817 98.016 24.9947 96.8374C26.7626 93.4664 27.8702 89.813 28.9313 86.1824C30.5817 80.3366 31.9008 74.4198 33.1512 68.503C33.929 64.6137 34.8481 60.7473 35.4137 56.8343C36.0504 52.4733 37.0168 48.1595 37.7947 43.8221C39.0206 37.4336 40.3168 31.0458 41.755 24.7046C42.9099 19.7542 44.0886 14.8267 45.6679 9.99465C46.4466 7.66106 47.2939 5.35113 48.5206 3.20609Z" fill="#EB7077" stroke="#EB7077" stroke-width="0.00861069"/>
<path d="M79.7786 0.235859C80.4618 0.235859 81.145 0.212195 81.829 0.235859C83.3374 1.03739 84.6107 2.3099 85.3176 3.88929C86.2603 5.6809 87.0389 7.56716 87.745 9.49998C90.103 16.784 91.7061 24.2801 93.3092 31.7527C94.6756 38.4473 95.9733 45.1656 97.1985 51.9076C97.2931 52.2611 97.1756 52.7565 97.6466 52.8504C95.9489 61.7137 94.2756 70.6007 92.1542 79.3939C90.9985 84.132 89.7725 88.8465 88.029 93.4198C87.0855 95.7061 86.1191 98.2046 84.1153 99.832C82.8427 100.114 81.9229 99.1481 81.1458 98.2755C79.8023 96.5549 78.9763 94.5275 78.1748 92.5C75.5107 85.2404 73.8847 77.6733 72.2351 70.1298C70.9855 64.2595 69.8771 58.3435 68.7221 52.4504C68.2031 49.4557 67.4969 46.5091 67.0962 43.516C67.0252 43.4687 66.8595 43.374 66.7893 43.3275C67.4545 39.8004 68.1538 36.2799 68.887 32.7664C70.5137 25.0107 72.1878 17.2549 74.5924 9.71219C75.4405 7.21296 76.3603 4.71449 77.7275 2.47555C78.2466 1.57937 79.0008 0.895401 79.7786 0.235859Z" fill="#F6A2AD" stroke="#F6A2AD" stroke-width="0.00861069"/>
<path d="M109.267 4.31376C110.117 2.6878 111.153 0.872538 112.992 0.259561C122.351 0.212232 131.71 0.235896 141.068 0.235896C140.195 1.10765 139.276 1.98017 138.686 3.0878C136.872 6.34124 135.811 9.94811 134.727 13.5077C131.945 23.3138 129.989 33.3321 128.126 43.3504C126.405 53.2283 124.566 63.1046 122.469 72.9351C121.385 77.8848 120.253 82.8115 118.815 87.6909C117.895 90.7084 116.93 93.7496 115.421 96.555C114.689 97.8275 113.84 99.2191 112.45 99.8786C103.516 99.9496 94.558 99.8786 85.6244 99.9015C85.129 99.9015 84.6107 99.9015 84.1153 99.8313C86.1191 98.2054 87.0855 95.7061 88.029 93.4191C89.7733 88.8466 90.9985 84.1321 92.1542 79.3939C94.2756 70.6008 95.9489 61.7145 97.6466 52.8504C99.6969 41.4176 101.843 29.9848 104.577 18.6931C105.85 13.8138 107.076 8.86338 109.268 4.31376H109.267Z" fill="#EB7077" stroke="#EB7077" stroke-width="0.00861069"/>
<path d="M141.068 0.235859C141.822 0.235859 142.6 0.212195 143.354 0.235859C144.58 0.8725 145.453 1.95647 146.231 3.0641C147.503 5.09158 148.305 7.37861 149.13 9.61754C151.086 15.629 152.548 21.8053 153.892 27.9809C155.683 36.3023 157.239 44.671 158.771 53.0389C159.148 55.0427 159.525 57.0694 159.761 59.0977L160.115 59.4511C159.266 60.6298 158.936 62.0443 158.465 63.3878C156.979 68.1733 156.013 73.1236 155.188 78.0504C154.552 81.916 153.679 85.7588 152.477 89.4832C151.582 92.2412 150.497 94.9756 148.706 97.2855C147.856 98.3939 146.702 99.242 145.429 99.8076C143.473 100.02 142.317 98.1343 141.374 96.7435C139.418 93.3252 138.357 89.5069 137.225 85.7817C133.501 71.9916 131.073 57.8717 128.456 43.8458C128.447 43.7421 128.412 43.6424 128.355 43.5558C128.297 43.4692 128.218 43.3985 128.126 43.3504C129.989 33.332 131.945 23.3137 134.727 13.5076C135.811 9.94807 136.872 6.3412 138.687 3.08777C139.276 1.98013 140.195 1.10761 141.068 0.235859ZM0.312973 53.8641C0.926714 53.8168 1.53969 53.7229 2.17557 53.7229H27.8702C28.9542 53.8641 30.0863 53.7702 31.1237 54.242C32.6428 54.8664 33.9687 55.8833 34.9656 57.1885C35.084 57.1175 35.2962 56.929 35.4137 56.8343C34.8481 60.7473 33.929 64.613 33.1511 68.503C31.9015 74.4198 30.5817 80.3366 28.9313 86.1824C27.8702 89.813 26.7626 93.4664 24.9947 96.8374C24.3817 98.016 23.4389 99.0061 22.3779 99.8313C21.9771 99.9023 21.671 99.6191 21.3405 99.4069C20.2328 98.7 19.5962 97.474 18.913 96.3664C15.6832 89.0114 15.3298 80.8786 13.326 73.1939C12.3122 69.3519 11.0626 65.5328 9.22442 61.9969C8.09236 59.8748 6.70229 57.8481 4.88702 56.2214C3.54351 55.1374 1.98702 54.2649 0.313736 53.8641H0.312973Z" fill="#F6A2AD" stroke="#F6A2AD" stroke-width="0.00861069"/>
<path d="M162.189 56.316C163.674 54.642 165.89 53.5817 168.13 53.6755H187.46C190.147 53.7229 192.857 53.5816 195.545 53.7465C194.744 54.2885 193.777 54.5007 192.928 54.9488C189.982 56.2923 187.46 58.5313 185.856 61.3366C183.287 65.816 182.391 70.9549 181.637 75.9992C180.882 80.9496 180.906 86.0649 179.303 90.874C178.219 94.245 176.569 97.6389 173.716 99.8549C164.853 99.9496 155.989 99.8786 147.15 99.9023C146.56 99.9023 145.995 99.9252 145.429 99.8076C146.702 99.2427 147.856 98.3939 148.705 97.2855C150.497 94.9755 151.582 92.2412 152.477 89.4832C153.679 85.758 154.552 81.916 155.188 78.0504C156.013 73.1236 156.979 68.1725 158.465 63.3878C158.936 62.0442 159.266 60.6297 160.115 59.4511C160.822 58.4137 161.293 57.2114 162.189 56.316Z" fill="#EB7077" stroke="#EB7077" stroke-width="0.00861069"/>
</svg>
