<svg width="500" height="369" viewBox="0 0 500 369" fill="none" xmlns="http://www.w3.org/2000/svg">
<path d="M37.76 326.91L109.28 251.12C110.966 249.288 113.013 247.826 115.293 246.826C117.573 245.825 120.035 245.309 122.525 245.309C125.015 245.309 127.477 245.825 129.757 246.826C132.037 247.826 134.084 249.288 135.77 251.12L207.29 326.91H37.76Z" fill="#F5F5F5"/>
<path d="M135.77 251.12C133.674 248.844 131.027 247.147 128.084 246.193C125.142 245.238 122.003 245.058 118.97 245.67C116.3 256.43 114.58 272.12 124.36 279.45C140.03 291.2 120.63 303.27 120.63 315.09C120.815 319.193 121.836 323.215 123.63 326.91H207.3L135.77 251.12Z" fill="#EBEBEB"/>
<path d="M98.8 327.85H69.53V240.13L98.8 226.12V327.85Z" fill="#F0F0F0"/>
<path d="M80.09 245.39H74.63V250.85H80.09V245.39Z" fill="white"/>
<path d="M91.84 255.32H86.38V260.78H91.84V255.32Z" fill="white"/>
<path d="M80.09 265.26H74.63V270.72H80.09V265.26Z" fill="white"/>
<path d="M91.84 275.19H86.38V280.65H91.84V275.19Z" fill="white"/>
<path d="M91.84 285.13H86.38V290.59H91.84V285.13Z" fill="white"/>
<path d="M80.09 295.06H74.63V300.52H80.09V295.06Z" fill="white"/>
<path d="M91.84 314.93H86.38V320.39H91.84V314.93Z" fill="white"/>
<path d="M61.32 158.52C61.32 158.52 168.22 173.95 177.12 148.61C185.58 124.52 169.52 142.3 149.82 141.1C141.97 140.62 148.74 117.64 128.72 117.74C109.15 117.83 114.09 140.04 106.1 140.35C102.02 140.5 104.1 130.99 92.16 131.82C79.22 132.72 82.47 146.52 77.77 149.88C74 152.58 60.51 145.56 61.32 158.52Z" fill="#F0F0F0"/>
<path d="M42.07 164.11C42.07 164.11 107.89 173.61 113.36 158.01C118.57 143.18 108.69 154.12 96.56 153.38C91.72 153.09 95.89 138.94 83.56 139C71.56 139.06 74.56 152.74 69.63 152.92C67.12 153.02 68.4 147.16 61.05 147.67C53.05 148.23 55.05 156.72 52.19 158.79C49.87 160.45 41.58 156.13 42.07 164.11Z" fill="#FAFAFA"/>
<path d="M415.72 313.89H432.74V283.93L415.72 277.49V313.89Z" fill="#EBEBEB"/>
<path d="M422.98 286.21H425.49V283.7H422.98V286.21Z" fill="white"/>
<path d="M417.57 286.21H420.08V283.7H417.57V286.21Z" fill="white"/>
<path d="M428.37 290.78H430.88V288.27H428.37V290.78Z" fill="white"/>
<path d="M422.98 295.35H425.49V292.84H422.98V295.35Z" fill="white"/>
<path d="M417.57 295.35H420.08V292.84H417.57V295.35Z" fill="white"/>
<path d="M428.37 299.91H430.88V297.4H428.37V299.91Z" fill="white"/>
<path d="M425.48 302.99H422.97V305.5H425.48V302.99Z" fill="white"/>
<path d="M430.88 302.99H428.37V305.5H430.88V302.99Z" fill="white"/>
<path d="M420.09 307.55H417.58V310.06H420.09V307.55Z" fill="white"/>
<path d="M408.54 243.33V233.95H406.29V223.47H404.4V218.73L400.6 213.13L396.8 218.73V223.47H394.91V233.95H392.66V243.33H390.39V298.21H410.82V243.33H408.54Z" fill="#EBEBEB"/>
<path d="M402.01 246.26H399.18V249.09H402.01V246.26Z" fill="#FEFEFE"/>
<path d="M408.11 246.26H405.28V249.09H408.11V246.26Z" fill="#FEFEFE"/>
<path d="M395.92 256.57H393.09V259.4H395.92V256.57Z" fill="#FEFEFE"/>
<path d="M408.11 256.57H405.28V259.4H408.11V256.57Z" fill="#FEFEFE"/>
<path d="M402.01 261.73H399.18V264.56H402.01V261.73Z" fill="#FEFEFE"/>
<path d="M395.92 266.88H393.09V269.71H395.92V266.88Z" fill="#FEFEFE"/>
<path d="M402.01 266.88H399.18V269.71H402.01V266.88Z" fill="#FEFEFE"/>
<path d="M408.11 272.04H405.28V274.87H408.11V272.04Z" fill="#FEFEFE"/>
<path d="M395.92 277.2H393.09V280.03H395.92V277.2Z" fill="#FEFEFE"/>
<path d="M402.01 282.35H399.18V285.18H402.01V282.35Z" fill="#FEFEFE"/>
<path d="M408.11 282.35H405.28V285.18H408.11V282.35Z" fill="#FEFEFE"/>
<path d="M449.9 343.49H416.78V343.74H449.9V343.49Z" fill="#EBEBEB"/>
<path d="M331.22 346.21H322.53V346.46H331.22V346.21Z" fill="#EBEBEB"/>
<path d="M415.78 334.21H396.59V334.46H415.78V334.21Z" fill="#EBEBEB"/>
<path d="M95.65 335.89H52.46V336.14H95.65V335.89Z" fill="#EBEBEB"/>
<path d="M110.89 335.89H104.56V336.14H110.89V335.89Z" fill="#EBEBEB"/>
<path d="M225.15 340.11H131.47V340.36H225.15V340.11Z" fill="#EBEBEB"/>
<path d="M238.4 282.8H45.3C43.7856 282.8 42.3333 282.198 41.2624 281.128C40.1916 280.057 39.59 278.604 39.59 277.09V5.66C39.6032 4.15429 40.2106 2.71475 41.28 1.65471C42.3494 0.594662 43.7943 -5.77259e-05 45.3 4.20255e-09H238.4C239.15 4.20255e-09 239.892 0.147692 240.585 0.434647C241.278 0.721601 241.907 1.1422 242.438 1.67242C242.968 2.20264 243.388 2.83211 243.675 3.52488C243.962 4.21765 244.11 4.96015 244.11 5.71V277.09C244.11 277.84 243.962 278.582 243.675 279.275C243.388 279.968 242.968 280.597 242.438 281.128C241.907 281.658 241.278 282.078 240.585 282.365C239.892 282.652 239.15 282.8 238.4 282.8ZM45.3 0.200001C43.8528 0.202644 42.4655 0.77874 41.4421 1.80212C40.4188 2.82549 39.8427 4.21273 39.84 5.66V277.09C39.8427 278.537 40.4188 279.924 41.4421 280.948C42.4655 281.971 43.8528 282.547 45.3 282.55H238.4C239.847 282.547 241.235 281.971 242.258 280.948C243.281 279.924 243.857 278.537 243.86 277.09V5.66C243.857 4.21273 243.281 2.82549 242.258 1.80212C241.235 0.77874 239.847 0.202644 238.4 0.200001H45.3Z" fill="#EBEBEB"/>
<path d="M454.7 282.8H261.6C260.086 282.8 258.633 282.198 257.562 281.128C256.492 280.057 255.89 278.604 255.89 277.09V5.66C255.903 4.15429 256.511 2.71475 257.58 1.65471C258.649 0.594662 260.094 -5.77259e-05 261.6 4.20255e-09H454.7C456.214 4.20256e-09 457.667 0.601588 458.738 1.67242C459.808 2.74325 460.41 4.19561 460.41 5.71V277.09C460.41 278.604 459.808 280.057 458.738 281.128C457.667 282.198 456.214 282.8 454.7 282.8ZM261.6 0.200001C260.153 0.202644 258.766 0.77874 257.742 1.80212C256.719 2.82549 256.143 4.21273 256.14 5.66V277.09C256.143 278.537 256.719 279.924 257.742 280.948C258.766 281.971 260.153 282.547 261.6 282.55H454.7C456.147 282.547 457.535 281.971 458.558 280.948C459.581 279.924 460.157 278.537 460.16 277.09V5.66C460.157 4.21273 459.581 2.82549 458.558 1.80212C457.535 0.77874 456.147 0.202644 454.7 0.200001H261.6Z" fill="#EBEBEB"/>
<path d="M500 327.4H0V327.65H500V327.4Z" fill="#EBEBEB"/>
<path d="M293.65 326.91L363.18 279.85C370.29 275.03 381.83 275.03 388.94 279.85L458.47 326.91H293.65Z" fill="#F5F5F5"/>
<path d="M388.94 279.85C384.5 276.85 378.34 275.72 372.6 276.46C370.01 283.14 368.34 292.89 377.85 297.46C393.08 304.75 374.21 312.25 374.21 319.59C374.21 321.96 375.45 324.53 377.13 326.93H458.47L388.94 279.85Z" fill="#EBEBEB"/>
<path d="M154.36 317.44L177.85 280.29C178.37 279.46 177.99 277.98 177.25 277.98H155.82C163.153 266.367 170.487 254.753 177.82 243.14C178.34 242.31 177.96 240.83 177.22 240.83H155.82C163.153 229.223 170.487 217.61 177.82 205.99C178.34 205.16 177.96 203.68 177.22 203.68H155.82C163.153 192.067 170.487 180.453 177.82 168.84C178.34 168.01 177.96 166.53 177.22 166.53H155.82C163.153 154.917 170.487 143.303 177.82 131.69C178.34 130.87 177.96 129.39 177.22 129.39H155.82L177.82 94.54C178.34 93.72 177.96 92.24 177.22 92.24H155.82L177.82 57.4C178.6 56.16 177.39 54.25 176.61 55.48L153.12 92.63C152.998 92.8471 152.922 93.0872 152.898 93.3352C152.874 93.5832 152.902 93.8334 152.98 94.07C153.08 94.52 153.33 94.87 153.71 94.89H175.17C167.837 106.503 160.503 118.117 153.17 129.73C153.048 129.947 152.972 130.187 152.948 130.435C152.924 130.683 152.952 130.933 153.03 131.17C153.13 131.62 153.38 131.97 153.76 131.99H175.22C167.887 143.597 160.553 155.21 153.22 166.83C153.098 167.047 153.022 167.287 152.998 167.535C152.974 167.783 153.002 168.033 153.08 168.27C153.18 168.72 153.43 169.07 153.81 169.09H175.27C167.937 180.697 160.603 192.31 153.27 203.93C153.148 204.147 153.072 204.387 153.048 204.635C153.024 204.883 153.052 205.133 153.13 205.37C153.23 205.82 153.48 206.17 153.86 206.19H175.32L153.32 241.03C153.198 241.247 153.122 241.487 153.098 241.735C153.074 241.983 153.102 242.233 153.18 242.47C153.28 242.91 153.53 243.27 153.91 243.29H175.37L153.37 278.13C153.248 278.347 153.172 278.587 153.148 278.835C153.124 279.083 153.152 279.333 153.23 279.57C153.33 280.01 153.58 280.37 153.96 280.39H175.42L153.42 315.23C152.37 316.76 153.58 318.67 154.36 317.44Z" fill="#E0E0E0"/>
<path d="M177.25 318.51C177.94 318.51 178.53 317.58 178.53 316.51V56.51C178.53 55.41 177.94 54.51 177.25 54.51H153.76C153.06 54.51 152.48 55.44 152.48 56.51V316.51C152.458 316.99 152.576 317.466 152.82 317.88C152.818 317.903 152.818 317.927 152.82 317.95C152.902 318.113 153.028 318.251 153.183 318.348C153.338 318.445 153.517 318.498 153.7 318.5L177.25 318.51ZM155 228.56V58.47H176V314.47H155V228.56Z" fill="#E0E0E0"/>
<path d="M176.64 317.44L153.15 280.29C152.63 279.46 153.02 277.98 153.76 277.98H175.18C167.847 266.367 160.513 254.753 153.18 243.14C152.66 242.31 153.05 240.83 153.79 240.83H175.21L153.21 205.99C152.69 205.16 153.08 203.68 153.82 203.68H175.24L153.24 168.84C152.72 168.01 153.11 166.53 153.85 166.53H175.27L153.27 131.69C152.75 130.87 153.14 129.39 153.88 129.39H175.3L153.3 94.54C152.78 93.72 153.17 92.24 153.91 92.24H175.33C167.997 80.62 160.663 69.0066 153.33 57.4C152.55 56.16 153.76 54.25 154.54 55.48L178.03 92.63C178.152 92.8471 178.228 93.0872 178.252 93.3352C178.276 93.5832 178.248 93.8334 178.17 94.07C178.07 94.52 177.83 94.87 177.45 94.89H155.82C163.153 106.503 170.487 118.117 177.82 129.73C177.942 129.947 178.018 130.187 178.042 130.435C178.066 130.683 178.038 130.933 177.96 131.17C177.86 131.62 177.62 131.97 177.24 131.99H155.82C163.153 143.597 170.487 155.21 177.82 166.83C177.942 167.047 178.018 167.287 178.042 167.535C178.066 167.783 178.038 168.033 177.96 168.27C177.86 168.72 177.62 169.07 177.24 169.09H155.82C163.153 180.697 170.487 192.31 177.82 203.93C177.942 204.147 178.018 204.387 178.042 204.635C178.066 204.883 178.038 205.133 177.96 205.37C177.86 205.82 177.62 206.17 177.24 206.19H155.82C163.153 217.803 170.487 229.417 177.82 241.03C177.942 241.247 178.018 241.487 178.042 241.735C178.066 241.983 178.038 242.233 177.96 242.47C177.86 242.91 177.62 243.27 177.24 243.29H155.82C163.153 254.897 170.487 266.51 177.82 278.13C177.942 278.347 178.018 278.587 178.042 278.835C178.066 279.083 178.038 279.333 177.96 279.57C177.86 280.01 177.62 280.37 177.24 280.39H155.82C163.153 292.003 170.487 303.617 177.82 315.23C178.63 316.76 177.42 318.67 176.64 317.44Z" fill="#F0F0F0"/>
<path d="M177.25 318.51C177.431 318.506 177.608 318.452 177.761 318.356C177.914 318.259 178.038 318.122 178.12 317.96V317.89C178.36 317.474 178.478 317 178.46 316.52V56.52C178.46 55.42 177.87 54.52 177.18 54.52H153.76C153.06 54.52 152.48 55.45 152.48 56.52V316.52C152.48 317.62 153.06 318.52 153.76 318.52L177.25 318.51ZM176 314.45H155V58.45H176V314.45Z" fill="#F0F0F0"/>
<path d="M145.87 327.4H281.84V319.55H145.87V327.4Z" fill="#E0E0E0"/>
<path d="M145.88 320.47H287.55V315.84H145.88V320.47Z" fill="#EBEBEB"/>
<path d="M154.05 94.43L169.59 104.25C169.93 104.47 170.59 104.31 170.59 104V95L185.16 104.21C185.51 104.43 186.16 104.27 186.16 103.96V94.96L200.73 104.17C201.07 104.39 201.73 104.23 201.73 103.92V94.92L216.3 104.13C216.65 104.35 217.3 104.19 217.3 103.88V94.88L231.87 104.09C232.21 104.31 232.87 104.15 232.87 103.84V94.84L247.44 104.05C247.79 104.27 248.44 104.11 248.44 103.8V94.8L263.01 104.01C263.52 104.33 264.32 103.83 263.81 103.5L248.27 93.68C248.178 93.6288 248.076 93.597 247.971 93.5867C247.866 93.5764 247.76 93.5877 247.66 93.62C247.48 93.67 247.33 93.77 247.32 93.93V102.93L232.75 93.72C232.66 93.669 232.56 93.6374 232.456 93.6271C232.353 93.6167 232.249 93.628 232.15 93.66C231.96 93.71 231.82 93.81 231.81 93.97V102.97L217 93.92C216.908 93.8688 216.806 93.837 216.701 93.8267C216.596 93.8164 216.49 93.8277 216.39 93.86C216.21 93.91 216.06 94.01 216.05 94.17V103.17L201.48 93.96C201.39 93.9091 201.29 93.8774 201.186 93.8671C201.083 93.8567 200.979 93.868 200.88 93.9C200.69 93.95 200.55 94.05 200.54 94.21V103.21L185.97 94C185.878 93.9488 185.776 93.917 185.671 93.9067C185.566 93.8964 185.46 93.9077 185.36 93.94C185.18 93.99 185.03 94.09 185.02 94.25V103.25L170.45 94.04C170.36 93.989 170.26 93.9574 170.156 93.9471C170.053 93.9367 169.949 93.948 169.85 93.98C169.66 94.03 169.52 94.13 169.5 94.29V103.29L154.93 94.08C154.34 93.59 153.54 94.1 154.05 94.43Z" fill="#E0E0E0"/>
<path d="M153.6 104C153.6 104.29 153.99 104.53 154.45 104.53H263.2C263.66 104.53 264.05 104.29 264.05 104V94.17C264.05 93.88 263.66 93.64 263.2 93.64H154.45C154.25 93.6286 154.052 93.6774 153.88 93.78C153.814 93.8148 153.757 93.8663 153.717 93.9294C153.677 93.9926 153.654 94.0651 153.65 94.14L153.6 104ZM191.22 94.71H262.35V103.46H155.35V94.71H191.22Z" fill="#E0E0E0"/>
<path d="M154.05 103.74L169.59 93.92C169.93 93.7 170.59 93.86 170.59 94.17V103.17L185.16 93.96C185.51 93.74 186.16 93.9 186.16 94.21V103.21L200.73 94C201.07 93.78 201.73 93.94 201.73 94.25V103.25L216.3 94.04C216.65 93.82 217.3 93.98 217.3 94.29V103.29L231.87 94.08C232.21 93.86 232.87 94.02 232.87 94.33V103.33L247.44 94.12C247.79 93.9 248.44 94.06 248.44 94.37V103.37L263.01 94.16C263.52 93.83 264.32 94.34 263.81 94.67L248.27 104.49C248.082 104.588 247.863 104.61 247.66 104.55C247.48 104.55 247.33 104.4 247.32 104.24V95.24L232.75 104.45C232.566 104.549 232.35 104.57 232.15 104.51C231.96 104.51 231.82 104.36 231.81 104.2V95.2L217 104.25C216.812 104.348 216.593 104.37 216.39 104.31C216.21 104.31 216.06 104.16 216.05 104V95L201.48 104.21C201.296 104.309 201.08 104.33 200.88 104.27C200.69 104.27 200.55 104.12 200.54 103.96V94.96L185.97 104.17C185.782 104.268 185.563 104.29 185.36 104.23C185.18 104.23 185.03 104.08 185.02 103.92V94.92L170.45 104.13C170.266 104.229 170.05 104.25 169.85 104.19C169.66 104.19 169.52 104.04 169.5 103.88V94.88L154.93 104.09C154.34 104.57 153.54 104.07 154.05 103.74Z" fill="#F0F0F0"/>
<path d="M153.6 104C153.605 104.075 153.628 104.147 153.668 104.21C153.709 104.273 153.764 104.324 153.83 104.36C154.003 104.458 154.201 104.507 154.4 104.5H263.2C263.66 104.5 264.05 104.26 264.05 103.97V94.14C264.05 93.85 263.66 93.61 263.2 93.61H154.45C153.99 93.61 153.6 93.85 153.6 94.14V104ZM155.3 103.46V94.71H262.35V103.46H155.35H155.3Z" fill="#F0F0F0"/>
<path d="M154.29 105.34H176.7C178.153 105.34 179.33 104.162 179.33 102.71V95.47C179.33 94.0175 178.153 92.84 176.7 92.84H154.29C152.837 92.84 151.66 94.0175 151.66 95.47V102.71C151.66 104.162 152.837 105.34 154.29 105.34Z" fill="#F5F5F5"/>
<path d="M154.05 170L169.59 179.83C169.93 180.04 170.59 179.88 170.59 179.57V170.57C175.45 173.637 180.307 176.71 185.16 179.79C185.51 180 186.16 179.84 186.16 179.53V170.53L200.73 179.75C201.07 179.96 201.73 179.8 201.73 179.49V170.49C206.59 173.557 211.447 176.63 216.3 179.71C216.65 179.92 217.3 179.76 217.3 179.45V170.45L231.87 179.67C232.21 179.88 232.87 179.72 232.87 179.41V170.41C237.73 173.477 242.587 176.55 247.44 179.63C247.79 179.84 248.44 179.68 248.44 179.37V170.37L263.01 179.59C263.52 179.91 264.32 179.41 263.81 179.08L248.27 169.26C248.178 169.209 248.076 169.177 247.971 169.167C247.866 169.156 247.76 169.168 247.66 169.2C247.48 169.2 247.33 169.34 247.32 169.5V178.5L232.75 169.29C232.66 169.239 232.56 169.207 232.456 169.197C232.353 169.187 232.249 169.198 232.15 169.23C231.96 169.23 231.82 169.37 231.81 169.53V178.53L217 169.49C216.908 169.439 216.806 169.407 216.701 169.397C216.596 169.386 216.49 169.398 216.39 169.43C216.21 169.43 216.06 169.57 216.05 169.73V178.73L201.48 169.52C201.39 169.469 201.29 169.437 201.186 169.427C201.083 169.417 200.979 169.428 200.88 169.46C200.69 169.46 200.55 169.6 200.54 169.76V178.76L185.97 169.55C185.878 169.499 185.776 169.467 185.671 169.457C185.566 169.446 185.46 169.458 185.36 169.49C185.18 169.49 185.03 169.63 185.02 169.79V178.79L170.45 169.58C170.36 169.529 170.26 169.497 170.156 169.487C170.053 169.477 169.949 169.488 169.85 169.52C169.66 169.52 169.52 169.66 169.5 169.82V178.82L154.93 169.61C154.34 169.16 153.54 169.67 154.05 170Z" fill="#E0E0E0"/>
<path d="M153.6 179.56C153.6 179.85 153.99 180.1 154.45 180.1H263.2C263.66 180.1 264.05 179.85 264.05 179.56V169.74C264.05 169.45 263.66 169.2 263.2 169.2H154.45C154.249 169.192 154.051 169.244 153.88 169.35C153.814 169.388 153.759 169.441 153.718 169.506C153.678 169.571 153.655 169.644 153.65 169.72L153.6 179.56ZM191.22 170.28H262.35V179H155.35V170.25L191.22 170.28Z" fill="#E0E0E0"/>
<path d="M154.05 179.31L169.59 169.49C169.93 169.27 170.59 169.43 170.59 169.74V178.74L185.16 169.53C185.51 169.31 186.16 169.47 186.16 169.78V178.78L200.73 169.57C201.07 169.35 201.73 169.51 201.73 169.82V178.82L216.3 169.61C216.65 169.39 217.3 169.55 217.3 169.86V178.86L231.87 169.65C232.21 169.43 232.87 169.59 232.87 169.9V178.9L247.44 169.69C247.79 169.47 248.44 169.63 248.44 169.94V178.94L263.01 169.73C263.52 169.4 264.32 169.91 263.81 170.23L248.27 180.06C248.179 180.114 248.077 180.147 247.972 180.157C247.866 180.167 247.76 180.155 247.66 180.12C247.48 180.12 247.33 179.98 247.32 179.82V170.82C242.46 173.887 237.603 176.96 232.75 180.04C232.661 180.093 232.56 180.126 232.457 180.137C232.353 180.147 232.248 180.135 232.15 180.1C231.96 180.1 231.82 179.96 231.81 179.8V170.8L217 179.82C216.909 179.874 216.807 179.907 216.702 179.917C216.596 179.927 216.49 179.915 216.39 179.88C216.21 179.88 216.06 179.74 216.05 179.58V170.58C211.19 173.647 206.333 176.72 201.48 179.8C201.391 179.853 201.29 179.886 201.187 179.897C201.083 179.907 200.978 179.895 200.88 179.86C200.69 179.86 200.55 179.72 200.54 179.56V170.56L185.97 179.78C185.879 179.834 185.777 179.867 185.672 179.877C185.566 179.887 185.46 179.875 185.36 179.84C185.18 179.84 185.03 179.7 185.02 179.54V170.54C180.16 173.607 175.303 176.68 170.45 179.76C170.361 179.813 170.26 179.846 170.157 179.857C170.053 179.867 169.948 179.855 169.85 179.82C169.66 179.82 169.52 179.68 169.5 179.52V170.52L154.93 179.74C154.34 180.14 153.54 179.64 154.05 179.31Z" fill="#F0F0F0"/>
<path d="M153.6 179.56C153.605 179.636 153.628 179.709 153.668 179.774C153.709 179.839 153.764 179.892 153.83 179.93C154.003 180.028 154.201 180.077 154.4 180.07H263.2C263.66 180.07 264.05 179.82 264.05 179.53V169.71C264.05 169.42 263.66 169.17 263.2 169.17H154.45C153.99 169.17 153.6 169.42 153.6 169.71V179.56ZM155.3 179.03V170.28H262.35V179H155.35L155.3 179.03Z" fill="#F0F0F0"/>
<path d="M154.29 180.9H176.7C178.153 180.9 179.33 179.723 179.33 178.27V171.03C179.33 169.578 178.153 168.4 176.7 168.4H154.29C152.837 168.4 151.66 169.578 151.66 171.03V178.27C151.66 179.723 152.837 180.9 154.29 180.9Z" fill="#F5F5F5"/>
<path d="M154.05 245.56L169.59 255.38C169.93 255.6 170.59 255.44 170.59 255.13V246.13L185.16 255.34C185.51 255.56 186.16 255.4 186.16 255.09V246.09L200.73 255.3C201.07 255.52 201.73 255.36 201.73 255.05V246.05L216.3 255.26C216.65 255.48 217.3 255.32 217.3 255.01V246.01L231.87 255.22C232.21 255.44 232.87 255.28 232.87 254.97V245.97L247.44 255.18C247.79 255.4 248.44 255.24 248.44 254.93V245.93L263.01 255.14C263.52 255.47 264.32 254.96 263.81 254.64L248.27 244.81C248.179 244.756 248.077 244.723 247.972 244.713C247.866 244.702 247.76 244.715 247.66 244.75C247.48 244.75 247.33 244.89 247.32 245.05V254.05L232.75 244.83C232.661 244.777 232.56 244.743 232.457 244.733C232.353 244.723 232.248 244.735 232.15 244.77C231.96 244.77 231.82 244.91 231.81 245.07V254.07L217 245.05C216.909 244.996 216.807 244.963 216.702 244.953C216.596 244.942 216.49 244.955 216.39 244.99C216.21 244.99 216.06 245.13 216.05 245.29V254.29L201.48 245.07C201.391 245.017 201.29 244.983 201.187 244.973C201.083 244.963 200.978 244.975 200.88 245.01C200.69 245.01 200.55 245.15 200.54 245.31V254.31C195.687 251.23 190.83 248.157 185.97 245.09C185.879 245.036 185.777 245.003 185.672 244.993C185.566 244.982 185.46 244.995 185.36 245.03C185.18 245.03 185.03 245.17 185.02 245.33V254.33L170.45 245.11C170.361 245.057 170.26 245.023 170.157 245.013C170.053 245.003 169.948 245.015 169.85 245.05C169.66 245.05 169.52 245.19 169.5 245.35V254.35C164.647 251.27 159.79 248.197 154.93 245.13C154.34 244.73 153.54 245.23 154.05 245.56Z" fill="#E0E0E0"/>
<path d="M153.6 255.13C153.6 255.42 153.99 255.67 154.45 255.67H263.2C263.66 255.67 264.05 255.42 264.05 255.13V245.31C264.05 245.02 263.66 244.77 263.2 244.77H154.45C154.251 244.763 154.053 244.812 153.88 244.91C153.814 244.948 153.759 245.001 153.718 245.066C153.678 245.131 153.655 245.204 153.65 245.28L153.6 255.13ZM191.22 245.84H262.35V254.59H155.35V245.84H191.22Z" fill="#E0E0E0"/>
<path d="M154.05 254.88L169.59 245.05C169.93 244.83 170.59 245 170.59 245.31V254.31L185.16 245.09C185.51 244.87 186.16 245.04 186.16 245.35V254.35L200.73 245.13C201.07 244.91 201.73 245.08 201.73 245.39V254.39L216.3 245.17C216.65 244.95 217.3 245.12 217.3 245.43V254.43L231.87 245.21C232.21 244.99 232.87 245.16 232.87 245.47V254.47L247.44 245.25C247.79 245.03 248.44 245.2 248.44 245.51V254.51L263.01 245.29C263.52 244.97 264.32 245.47 263.81 245.8L248.27 255.62C248.178 255.671 248.076 255.703 247.971 255.713C247.866 255.724 247.76 255.712 247.66 255.68C247.48 255.68 247.33 255.53 247.32 255.38V246.38L232.75 255.59C232.66 255.641 232.56 255.673 232.456 255.683C232.353 255.693 232.249 255.682 232.15 255.65C231.96 255.65 231.82 255.5 231.81 255.35V246.35L217 255.38C216.908 255.431 216.806 255.463 216.701 255.473C216.596 255.484 216.49 255.472 216.39 255.44C216.21 255.44 216.06 255.29 216.05 255.14V246.14L201.48 255.35C201.39 255.401 201.29 255.433 201.186 255.443C201.083 255.453 200.979 255.442 200.88 255.41C200.69 255.41 200.55 255.26 200.54 255.11V246.11L185.97 255.32C185.878 255.371 185.776 255.403 185.671 255.413C185.566 255.424 185.46 255.412 185.36 255.38C185.18 255.38 185.03 255.23 185.02 255.08V246.08L170.45 255.29C170.36 255.341 170.26 255.373 170.156 255.383C170.053 255.393 169.949 255.382 169.85 255.35C169.768 255.342 169.69 255.309 169.627 255.256C169.565 255.202 169.52 255.13 169.5 255.05V246.05L154.93 255.26C154.34 255.71 153.54 255.2 154.05 254.88Z" fill="#F0F0F0"/>
<path d="M153.6 255.13C153.604 255.205 153.627 255.277 153.667 255.341C153.707 255.404 153.764 255.455 153.83 255.49C154.001 255.596 154.199 255.648 154.4 255.64H263.2C263.66 255.64 264.05 255.39 264.05 255.1V245.28C264.05 244.99 263.66 244.74 263.2 244.74H154.45C153.99 244.74 153.6 244.99 153.6 245.28V255.13ZM155.3 254.59V245.84H262.35V254.59H155.35H155.3Z" fill="#F0F0F0"/>
<path d="M154.29 256.47H176.7C178.153 256.47 179.33 255.292 179.33 253.84V246.6C179.33 245.147 178.153 243.97 176.7 243.97H154.29C152.837 243.97 151.66 245.147 151.66 246.6V253.84C151.66 255.292 152.837 256.47 154.29 256.47Z" fill="#F5F5F5"/>
<path d="M289.34 96.53C289.34 96.53 406.67 109.77 395 76.67C386 51.24 369.27 74.97 361.2 72.21C354.12 69.8 356.86 52 337.6 54C318.34 56 325.44 74.9 319.28 79.91C312.64 85.27 288.62 72.21 289.34 96.53Z" fill="#F0F0F0"/>
<path d="M351.51 100.59C351.51 100.59 422.41 108.59 415.35 88.59C409.91 73.22 399.79 87.59 394.92 85.9C390.66 84.44 392.32 73.66 380.68 74.9C369.04 76.14 373.33 87.53 369.61 90.55C365.59 93.79 351.08 85.9 351.51 100.59Z" fill="#FAFAFA"/>
<path d="M245.18 368.71C352.262 368.71 439.07 363.642 439.07 357.39C439.07 351.138 352.262 346.07 245.18 346.07C138.097 346.07 51.29 351.138 51.29 357.39C51.29 363.642 138.097 368.71 245.18 368.71Z" fill="#F5F5F5"/>
<path d="M310.785 131.06L296.198 133.375C294.769 133.602 293.794 134.945 294.021 136.374L297.39 157.598C297.617 159.027 298.96 160.002 300.389 159.775L314.976 157.459C316.405 157.232 317.38 155.89 317.153 154.461L313.784 133.236C313.557 131.807 312.214 130.833 310.785 131.06Z" fill="#407BFF"/>
<path opacity="0.2" d="M313.77 133.17C313.717 132.827 313.594 132.499 313.408 132.207C313.222 131.914 312.978 131.663 312.69 131.47L299 159.62C299.426 159.799 299.894 159.854 300.35 159.78L315 157.44C315.331 157.388 315.648 157.271 315.934 157.095C316.22 156.92 316.468 156.691 316.665 156.419C316.862 156.148 317.004 155.841 317.082 155.515C317.16 155.189 317.173 154.851 317.12 154.52L313.77 133.17Z" fill="white"/>
<path d="M315 157.44C315.331 157.388 315.648 157.271 315.934 157.095C316.22 156.92 316.468 156.691 316.665 156.419C316.862 156.148 317.004 155.841 317.082 155.515C317.16 155.189 317.173 154.851 317.12 154.52L313.73 133.17C313.678 132.839 313.561 132.521 313.385 132.236C313.21 131.95 312.981 131.702 312.709 131.505C312.438 131.308 312.131 131.166 311.805 131.088C311.479 131.01 311.141 130.997 310.81 131.05L296.09 133.39C295.759 133.442 295.442 133.559 295.156 133.734C294.87 133.91 294.622 134.139 294.425 134.411C294.228 134.682 294.086 134.989 294.008 135.315C293.93 135.641 293.917 135.979 293.97 136.31L297.35 157.66C297.461 158.328 297.83 158.926 298.379 159.323C298.928 159.72 299.611 159.884 300.28 159.78L315 157.44ZM298.32 157.5L295 136.16C294.965 135.955 294.972 135.744 295.02 135.541C295.068 135.339 295.156 135.148 295.28 134.98C295.521 134.651 295.879 134.426 296.28 134.35L311 132H311.25C311.627 132.002 311.99 132.138 312.276 132.384C312.562 132.629 312.751 132.968 312.81 133.34L316.2 154.68C316.261 155.095 316.161 155.517 315.92 155.86C315.679 156.19 315.322 156.415 314.92 156.49L300.21 158.83C300.001 158.867 299.786 158.862 299.579 158.815C299.372 158.768 299.177 158.679 299.004 158.555C298.832 158.431 298.686 158.274 298.575 158.093C298.465 157.912 298.391 157.71 298.36 157.5H298.32Z" fill="#263238"/>
<path opacity="0.9" d="M312.3 141.586L301.291 143.365C300.236 143.536 299.519 144.529 299.689 145.585L299.745 145.931C299.916 146.986 300.91 147.704 301.965 147.533L312.974 145.754C314.029 145.583 314.746 144.59 314.576 143.534L314.52 143.188C314.349 142.133 313.355 141.415 312.3 141.586Z" fill="white"/>
<path d="M301.26 147C301.123 146.987 300.99 146.946 300.87 146.88L300.95 146.55C301.06 146.604 301.178 146.641 301.3 146.66C301.432 146.685 301.568 146.685 301.7 146.66C301.822 146.644 301.939 146.599 302.04 146.53C302.073 146.504 302.098 146.47 302.112 146.431C302.126 146.393 302.129 146.35 302.12 146.31C302.12 146.282 302.113 146.254 302.099 146.229C302.085 146.205 302.065 146.184 302.04 146.17C301.985 146.129 301.919 146.105 301.85 146.1H301.57C301.429 146.089 301.289 146.069 301.15 146.04C301.046 146.018 300.95 145.97 300.87 145.9C300.824 145.861 300.786 145.814 300.759 145.761C300.731 145.708 300.715 145.65 300.71 145.59C300.675 145.479 300.675 145.361 300.71 145.25C300.764 145.134 300.851 145.037 300.96 144.97C301.103 144.89 301.258 144.836 301.42 144.81C301.553 144.795 301.687 144.795 301.82 144.81C301.941 144.818 302.06 144.849 302.17 144.9L302.09 145.23C301.991 145.189 301.886 145.162 301.78 145.15H301.47C301.348 145.162 301.233 145.211 301.14 145.29C301.106 145.317 301.081 145.353 301.067 145.393C301.053 145.434 301.05 145.478 301.06 145.52C301.064 145.547 301.074 145.573 301.09 145.595C301.106 145.618 301.126 145.637 301.15 145.65C301.202 145.689 301.265 145.713 301.33 145.72H301.61C301.748 145.726 301.886 145.746 302.02 145.78C302.125 145.8 302.225 145.845 302.31 145.91C302.402 145.993 302.459 146.107 302.47 146.23C302.5 146.338 302.5 146.452 302.47 146.56C302.411 146.676 302.321 146.773 302.21 146.84C302.068 146.922 301.912 146.976 301.75 147C301.588 147.025 301.422 147.025 301.26 147Z" fill="#263238"/>
<path d="M303.18 144.88L302.47 144.99L302.42 144.65L304.23 144.37V144.7L303.53 144.81L303.81 146.61L303.41 146.68L303.18 144.88Z" fill="#263238"/>
<path d="M306.13 145.75L305.06 145.92L304.93 146.44L304.52 146.51L305.14 144.22L305.53 144.16L306.83 146.16L306.42 146.23L306.13 145.75ZM305.95 145.46L305.4 144.59L305.14 145.59L305.95 145.46Z" fill="#263238"/>
<path d="M308.56 145.87L308.03 145.31H307.95L307.46 145.38L307.56 146.01L307.17 146.07L306.83 143.93L307.71 143.79C307.872 143.759 308.038 143.759 308.2 143.79C308.338 143.823 308.463 143.896 308.56 144C308.655 144.111 308.717 144.246 308.74 144.39C308.762 144.536 308.741 144.686 308.68 144.82C308.62 144.955 308.518 145.067 308.39 145.14L308.99 145.76L308.56 145.87ZM308.15 144.2C308.017 144.156 307.873 144.156 307.74 144.2L307.28 144.28L307.41 145.13L307.88 145.05C308.02 145.042 308.152 144.981 308.25 144.88C308.29 144.834 308.319 144.779 308.334 144.72C308.35 144.661 308.352 144.6 308.34 144.54C308.337 144.472 308.319 144.406 308.286 144.347C308.253 144.288 308.206 144.238 308.15 144.2Z" fill="#263238"/>
<path d="M309.57 143.86L308.87 143.97L308.81 143.64L310.63 143.35L310.68 143.69L309.97 143.8L310.26 145.6L309.86 145.66L309.57 143.86Z" fill="#263238"/>
<path d="M345.33 120.58C345.17 121.11 345.33 121.58 345.67 121.72C346.01 121.86 346.48 121.46 346.62 120.94C346.76 120.42 346.62 119.94 346.27 119.8C345.92 119.66 345.49 120.05 345.33 120.58Z" fill="#263238"/>
<path d="M347.35 122.68L342.86 125.19C343.17 125.708 343.596 126.148 344.104 126.474C344.613 126.8 345.19 127.004 345.79 127.07L347.35 122.68Z" fill="#BA4D3C"/>
<path d="M348.13 119C348.082 118.996 348.036 118.982 347.994 118.957C347.952 118.933 347.917 118.9 347.89 118.86C347.712 118.545 347.462 118.276 347.159 118.078C346.856 117.88 346.51 117.757 346.15 117.72C346.074 117.715 346.003 117.681 345.951 117.625C345.899 117.57 345.87 117.496 345.87 117.42C345.877 117.343 345.913 117.272 345.971 117.22C346.028 117.168 346.103 117.14 346.18 117.14C346.638 117.176 347.08 117.325 347.467 117.573C347.855 117.82 348.175 118.159 348.4 118.56C348.437 118.628 348.446 118.708 348.425 118.782C348.405 118.857 348.356 118.92 348.29 118.96C348.239 118.983 348.185 118.996 348.13 119Z" fill="#263238"/>
<path d="M366.61 124.16C364.81 131.28 364.2 134.33 359.78 137.38C353.39 140.14 344.57 138.28 344.17 130.78C343.8 124.04 346.8 113.56 354.57 111.92C357.195 111.334 359.945 111.809 362.221 113.242C364.497 114.675 366.114 116.95 366.72 119.57C367.049 121.087 367.011 122.661 366.61 124.16Z" fill="#CE7A63"/>
<path d="M352.58 123L344.51 117.91C344.51 117.91 342.11 123.24 343.1 123.57C344.09 123.9 345.65 119.7 345.65 119.7L351.42 122.86L352.58 123Z" fill="#407BFF"/>
<path opacity="0.7" d="M345.43 119.84L344.82 119.43C344.82 119.43 342.89 123.19 343.34 123.55C343.79 123.91 345.43 119.84 345.43 119.84Z" fill="white"/>
<path d="M351.52 137.28C352.2 139.45 349.43 144.65 349.43 144.65L359.6 149.65L361.49 135.32C361.49 135.32 350.71 134.72 351.52 137.28Z" fill="#CE7A63"/>
<path d="M351.66 127.3C351.303 126.035 351.227 124.707 351.437 123.41C351.648 122.112 352.141 120.877 352.88 119.79C353.95 118.34 351.95 114.24 350.72 117.92C349.92 120.3 345.34 115.68 347.86 111.69C347.86 111.69 354 104.41 358.68 110.32C358.68 110.32 369.83 111.76 369.14 119.43C369.14 119.43 372.82 128.95 360.65 138.58L357 137.9C355.13 137.49 353.69 134.71 353.18 132.9L351.66 127.3Z" fill="#263238"/>
<path d="M351.44 123.11C350.793 123.489 350.227 123.992 349.775 124.591C349.324 125.191 348.996 125.873 348.81 126.6C348.34 128.53 350.13 129.43 351.96 128.84C353.61 128.3 355.83 126.65 355.49 124.73C355.401 124.308 355.21 123.914 354.932 123.583C354.655 123.252 354.3 122.996 353.899 122.835C353.498 122.675 353.064 122.616 352.635 122.664C352.206 122.712 351.796 122.865 351.44 123.11Z" fill="#CE7A63"/>
<path d="M366.54 114.35C366.54 114.35 363.09 112.51 363.32 115.88C363.55 119.25 366 123.88 368.91 123.58C371.82 123.28 366.54 114.35 366.54 114.35Z" fill="#407BFF"/>
<path d="M369.46 111.72C368.565 111.713 367.693 111.996 366.972 112.526C366.251 113.056 365.721 113.804 365.46 114.66C365.225 115.514 365.193 116.41 365.366 117.279C365.54 118.147 365.914 118.962 366.46 119.66C367.54 121.08 369.07 126.75 368.46 127.53C367.63 128.62 367.98 130.11 367.6 131.43C365.95 137.19 371.41 139.33 372.45 139.31C372.925 139.594 373.452 139.78 374 139.855C374.548 139.931 375.106 139.895 375.64 139.75C376.29 139.55 378.83 139.01 377.64 135.68C377.64 136.29 376.64 136.87 376.01 136.8C375.687 136.759 375.38 136.635 375.119 136.441C374.858 136.246 374.652 135.988 374.52 135.69C374.26 135.09 376.1 137.22 378.16 134.89C378.98 133.95 379.16 131.16 378.59 130.03C379.937 128.109 380.792 125.888 381.08 123.56C381.13 122.591 380.978 121.622 380.634 120.715C380.29 119.807 379.76 118.982 379.08 118.29C379.599 117.285 379.77 116.137 379.568 115.024C379.365 113.912 378.8 112.897 377.96 112.14C377.102 111.39 376.083 110.85 374.981 110.56C373.879 110.27 372.726 110.239 371.61 110.47C370.61 110.66 369.43 111.2 369.26 112.23" fill="#263238"/>
<path d="M331 161.4C331 161.4 326.53 155.63 325 153.77C323.92 152.5 321.9 149.77 320.54 148.83C319.18 147.89 315.41 146.11 313.62 146.29C313.33 146.29 312.98 146.4 312.98 146.69C312.98 147.53 315.28 148.5 316.8 149.04C316.953 149.096 317.092 149.186 317.206 149.302C317.321 149.418 317.408 149.558 317.463 149.711C317.517 149.865 317.537 150.029 317.521 150.191C317.505 150.353 317.453 150.51 317.37 150.65C316.75 151.65 315.99 154.17 316.21 154.81C316.52 155.71 318.36 156.7 319.14 157.25C319.92 157.8 322 159 322 159L327.37 167.48L331 161.4Z" fill="#CE7A63"/>
<path opacity="0.1" d="M331 161.4C331 161.4 326.53 155.63 325 153.77C323.92 152.5 321.9 149.77 320.54 148.83C319.18 147.89 315.41 146.11 313.62 146.29C313.33 146.29 312.98 146.4 312.98 146.69C312.98 147.53 315.28 148.5 316.8 149.04C316.953 149.096 317.092 149.186 317.206 149.302C317.321 149.418 317.408 149.558 317.463 149.711C317.517 149.865 317.537 150.029 317.521 150.191C317.505 150.353 317.453 150.51 317.37 150.65C316.75 151.65 315.99 154.17 316.21 154.81C316.52 155.71 318.36 156.7 319.14 157.25C319.92 157.8 322 159 322 159L327.37 167.48L331 161.4Z" fill="black"/>
<path d="M325.84 165.58C325.84 165.58 332.48 179.91 339.84 183.13C347.2 186.35 348.17 186.28 362.18 172.7C376.19 159.12 373.7 151.19 368.7 149.7C363.7 148.21 359.88 153.7 355.42 160C352.116 164.423 348.436 168.552 344.42 172.34L330.48 160.4C330.48 160.4 326.59 160.88 325.84 165.58Z" fill="#263238"/>
<path d="M315.3 340.4L314.34 354.54L320.88 355.52L324.29 341.78L315.3 340.4Z" fill="#CE7A63"/>
<path d="M314.64 351.23L321.46 351.75C321.62 351.754 321.774 351.813 321.896 351.917C322.018 352.02 322.1 352.163 322.13 352.32L323.52 359.45C323.582 359.754 323.521 360.069 323.35 360.328C323.18 360.587 322.914 360.767 322.61 360.83H322.36C319.22 360.69 316.43 360.45 312.52 360.35C307.9 360.23 309.06 360.82 303.63 360.75C300.36 360.75 299.86 356.98 301.25 356.83C307.62 356.2 310.25 354 312.73 351.83C313.271 351.401 313.951 351.187 314.64 351.23Z" fill="#263238"/>
<path opacity="0.1" d="M322.04 350.86L314.64 350.16L315.3 340.4L324.29 341.78L322.04 350.86Z" fill="black"/>
<path d="M363 336.81L366.46 354.51L372.74 353.98L372.03 336.81H363Z" fill="#CE7A63"/>
<path d="M365.75 352.27L373.55 352.15C373.692 352.15 373.83 352.197 373.942 352.284C374.054 352.371 374.135 352.492 374.17 352.63L375.67 358.95C375.71 359.083 375.722 359.224 375.705 359.362C375.688 359.5 375.643 359.633 375.571 359.753C375.499 359.873 375.404 359.976 375.29 360.056C375.176 360.137 375.047 360.192 374.91 360.22H374.69C371.88 360.22 369.38 360.09 365.88 360.15C361.75 360.21 362.8 360.69 357.95 360.83C355.03 360.91 354.44 357.6 355.68 357.42C361.35 356.62 361.91 354.89 364.07 352.83C364.542 352.442 365.14 352.243 365.75 352.27Z" fill="#263238"/>
<path opacity="0.1" d="M372.57 350L365.7 350.66L363.16 337.66C366.16 337.51 371.08 337.29 372.05 337.25L372.57 350Z" fill="black"/>
<path d="M373.16 347.36L364.69 347.96L348.23 273.11L344.88 256.57L340.42 234.57L335 204.81H363.1C363.1 204.81 368.24 217.81 365.93 232.25C364.47 241.33 364.73 253.83 364.85 263.56C364.85 266.41 364.92 268.9 364.96 270.81C365.005 273.237 365.455 275.64 366.29 277.92C366.86 279.51 367.57 281.69 368.29 284.38C369.72 289.188 370.652 294.131 371.07 299.13C372.38 315.58 373.16 347.36 373.16 347.36Z" fill="#407BFF"/>
<path opacity="0.1" d="M373.16 347.36L364.69 347.96L348.23 273.11L344.88 256.57L340.42 234.57L335 204.81H363.1C363.1 204.81 368.24 217.81 365.93 232.25C364.47 241.33 364.73 253.83 364.85 263.56C364.85 266.41 364.92 268.9 364.96 270.81C365.005 273.237 365.455 275.64 366.29 277.92C366.86 279.51 367.57 281.69 368.29 284.38C369.72 289.188 370.652 294.131 371.07 299.13C372.38 315.58 373.16 347.36 373.16 347.36Z" fill="black"/>
<path opacity="0.1" d="M354.82 227.9C349.672 236.718 346.295 246.457 344.88 256.57L340.42 234.57L340.53 234L348.1 228.29L350.6 227.23L354.82 227.9Z" fill="black"/>
<path d="M328.43 204.81L314.43 346.35L323.03 347.62C323.03 347.62 334.11 311.43 335.82 290.42C336.028 288.19 336.088 285.948 336 283.71C335.88 280.853 336.242 277.997 337.07 275.26L338.24 271.32L344.77 247.26C346.102 242.607 348.33 238.259 351.33 234.46C354.8 230.14 359.56 218.83 357.6 205.11L336.24 204.81H328.43Z" fill="#407BFF"/>
<path d="M324.64 345.45L323.35 348.99L313.21 347.56L313.44 343.81L324.64 345.45Z" fill="#407BFF"/>
<path opacity="0.2" d="M324.64 345.45L323.35 348.99L313.21 347.56L313.44 343.81L324.64 345.45Z" fill="black"/>
<path d="M374.21 344.82L374.16 348.53L363.95 349.32L363.37 345.6L374.21 344.82Z" fill="#407BFF"/>
<path opacity="0.2" d="M374.21 344.82L374.16 348.53L363.95 349.32L363.37 345.6L374.21 344.82Z" fill="black"/>
<path d="M370.81 153.23C370.92 164.53 363.17 169.78 362.88 199.56C362.88 199.56 361.75 204.73 328.71 199.28C328.71 199.28 329.32 193.6 328.71 179.28L328.65 178.11C328.35 171.26 328.18 164.88 328.35 160.96C328.35 160.35 328.41 159.8 328.45 159.33C328.478 158.884 328.532 158.44 328.61 158C330.02 150.31 330.83 147.21 333.61 145.41C343.69 138.89 370.73 146.06 370.81 153.23Z" fill="#263238"/>
<path opacity="0.4" d="M328.6 178.11C328.3 171.26 328.13 164.88 328.3 160.96C328.3 160.35 328.36 159.8 328.4 159.33L335.93 149.48L339.07 150.84C339.07 150.84 341.92 162.86 328.6 178.11Z" fill="black"/>
<path d="M308.65 160.21L301.65 154.79C301.688 152.493 301.231 150.215 300.31 148.11C299.14 145.91 293.81 141.96 293.9 147.2C293.99 152.44 294.27 152.09 295.16 153.95C295.72 155.14 296.69 155.53 298.52 157.5C300.35 159.47 303.77 164.36 303.77 164.36L308.65 160.21Z" fill="#CE7A63"/>
<path d="M302 163.79C302 163.79 310.18 174.79 313.43 177.62C318.08 181.62 325.38 180.31 332.22 168.99C342.31 152.29 341.57 146.46 336.45 145.48C331.33 144.5 328.85 150.95 325.02 157.62C321.19 164.29 318.58 168.51 318.58 168.51L307.23 158.06C307.23 158.06 302.33 159 302 163.79Z" fill="#263238"/>
<path d="M348 144C348 144 351.63 137.61 361.74 141.88C367.6 144.35 361.74 147.74 361.74 147.74L348 144Z" fill="#263238"/>
<path opacity="0.4" d="M350.29 143.41C350.29 143.41 358.9 141.68 363.17 146.33L350.29 143.41Z" fill="black"/>
<path d="M328.71 199.28L362.88 199.56L363.1 204.81H328.43L328.71 199.28Z" fill="#407BFF"/>
<path opacity="0.2" d="M328.71 199.28L362.88 199.56L363.1 204.81H328.43L328.71 199.28Z" fill="black"/>
<path d="M209.93 177.46C208.26 177.6 206.26 177.28 204.59 177.46C205.1 164.97 202.59 146.83 196.97 132.39C206.83 145.52 209.28 161 209.93 177.46Z" fill="white"/>
<path d="M205.41 270.87L202.23 297.53C202.23 297.53 208.23 293.7 209.91 302.19C209.91 302.19 209.97 296.19 214.79 295.7C219.95 295.2 220.79 301.11 220.79 301.11C220.79 301.11 220.98 293.7 227.53 292.83L224.6 270.83L205.41 270.87Z" fill="#407BFF"/>
<path d="M171.94 316.44C171.94 316.44 155.15 317.49 155.69 315.08C156.23 312.67 168.62 312.34 168.62 312.34C168.62 312.34 160.83 308.99 164.23 304.23C167.63 299.47 173.99 305.43 173.99 305.43C173.99 305.43 169.99 299.78 174.08 296.5C179.26 292.34 183.66 300.57 183.66 300.57C183.66 300.57 182.49 294.23 187.16 294.35C191.83 294.47 190.5 300.51 190.5 300.51C190.5 300.51 197.02 295.12 200.42 298.66C203.58 301.95 199.24 306.59 199.24 306.59C199.24 306.59 206.03 302.33 208.06 306.27C210.09 310.21 202.8 313.65 202.8 313.65C202.8 313.65 216.9 312.95 217.36 315.14C217.82 317.33 182.81 315.21 171.94 316.44Z" fill="#407BFF"/>
<path opacity="0.7" d="M171.94 316.44C171.94 316.44 155.15 317.49 155.69 315.08C156.23 312.67 168.62 312.34 168.62 312.34C168.62 312.34 160.83 308.99 164.23 304.23C167.63 299.47 173.99 305.43 173.99 305.43C173.99 305.43 169.99 299.78 174.08 296.5C179.26 292.34 183.66 300.57 183.66 300.57C183.66 300.57 182.49 294.23 187.16 294.35C191.83 294.47 190.5 300.51 190.5 300.51C190.5 300.51 197.02 295.12 200.42 298.66C203.58 301.95 199.24 306.59 199.24 306.59C199.24 306.59 206.03 302.33 208.06 306.27C210.09 310.21 202.8 313.65 202.8 313.65C202.8 313.65 216.9 312.95 217.36 315.14C217.82 317.33 182.81 315.21 171.94 316.44Z" fill="white"/>
<path d="M228.48 315.42C228.48 315.42 211.68 316.48 212.22 314.06C212.76 311.64 225.15 311.32 225.15 311.32C225.15 311.32 217.36 307.97 220.76 303.22C224.16 298.47 230.52 304.41 230.52 304.41C230.52 304.41 226.52 298.77 230.61 295.49C235.79 291.33 240.19 299.55 240.19 299.55C240.19 299.55 239.03 293.22 243.69 293.34C248.35 293.46 247.03 299.49 247.03 299.49C247.03 299.49 253.55 294.1 256.95 297.65C260.11 300.94 255.77 305.57 255.77 305.57C255.77 305.57 262.56 301.31 264.6 305.26C266.64 309.21 259.33 312.64 259.33 312.64C259.33 312.64 273.44 311.94 273.89 314.13C274.34 316.32 239.34 314.19 228.48 315.42Z" fill="#407BFF"/>
<path opacity="0.7" d="M228.48 315.42C228.48 315.42 211.68 316.48 212.22 314.06C212.76 311.64 225.15 311.32 225.15 311.32C225.15 311.32 217.36 307.97 220.76 303.22C224.16 298.47 230.52 304.41 230.52 304.41C230.52 304.41 226.52 298.77 230.61 295.49C235.79 291.33 240.19 299.55 240.19 299.55C240.19 299.55 239.03 293.22 243.69 293.34C248.35 293.46 247.03 299.49 247.03 299.49C247.03 299.49 253.55 294.1 256.95 297.65C260.11 300.94 255.77 305.57 255.77 305.57C255.77 305.57 262.56 301.31 264.6 305.26C266.64 309.21 259.33 312.64 259.33 312.64C259.33 312.64 273.44 311.94 273.89 314.13C274.34 316.32 239.34 314.19 228.48 315.42Z" fill="white"/>
<path d="M196 293.87C196 293.87 187.22 290.1 191.05 284.74C194.88 279.38 202.05 286.09 202.05 286.09C202.05 286.09 197.53 279.73 202.14 276.02C207.99 271.34 212.94 280.61 212.94 280.61C212.94 280.61 211.63 273.47 216.94 273.61C222.25 273.75 220.7 280.55 220.7 280.55C220.7 280.55 228.05 274.47 231.88 278.47C235.44 282.18 230.55 287.4 230.55 287.4C230.55 287.4 238.2 282.6 240.55 287.05C242.9 291.5 234.61 295.37 234.61 295.37L196 293.87Z" fill="#407BFF"/>
<path opacity="0.6" d="M196 293.87C196 293.87 187.22 290.1 191.05 284.74C194.88 279.38 202.05 286.09 202.05 286.09C202.05 286.09 197.53 279.73 202.14 276.02C207.99 271.34 212.94 280.61 212.94 280.61C212.94 280.61 211.63 273.47 216.94 273.61C222.25 273.75 220.7 280.55 220.7 280.55C220.7 280.55 228.05 274.47 231.88 278.47C235.44 282.18 230.55 287.4 230.55 287.4C230.55 287.4 238.2 282.6 240.55 287.05C242.9 291.5 234.61 295.37 234.61 295.37L196 293.87Z" fill="white"/>
<path d="M191.7 316.6C191.7 316.6 166.99 318.16 167.78 314.6C168.57 311.04 186.78 310.6 186.78 310.6C186.78 310.6 175.33 305.68 180.33 298.68C185.44 291.52 194.69 300.44 194.69 300.44C194.69 300.44 188.8 292.14 194.82 287.31C202.44 281.19 208.91 293.31 208.91 293.31C208.91 293.31 207.2 283.99 214.07 284.16C220.94 284.33 218.97 293.22 218.97 293.22C218.97 293.22 228.57 285.29 233.57 290.5C238.22 295.35 231.83 302.16 231.83 302.16C231.83 302.16 241.83 295.9 244.83 301.7C247.83 307.5 237.08 312.56 237.08 312.56C237.08 312.56 257.83 311.56 258.51 314.75C259.19 317.94 207.69 314.8 191.7 316.6Z" fill="#407BFF"/>
<path opacity="0.8" d="M191.7 316.6C191.7 316.6 166.99 318.16 167.78 314.6C168.57 311.04 186.78 310.6 186.78 310.6C186.78 310.6 175.33 305.68 180.33 298.68C185.44 291.52 194.69 300.44 194.69 300.44C194.69 300.44 188.8 292.14 194.82 287.31C202.44 281.19 208.91 293.31 208.91 293.31C208.91 293.31 207.2 283.99 214.07 284.16C220.94 284.33 218.97 293.22 218.97 293.22C218.97 293.22 228.57 285.29 233.57 290.5C238.22 295.35 231.83 302.16 231.83 302.16C231.83 302.16 241.83 295.9 244.83 301.7C247.83 307.5 237.08 312.56 237.08 312.56C237.08 312.56 257.83 311.56 258.51 314.75C259.19 317.94 207.69 314.8 191.7 316.6Z" fill="white"/>
<path opacity="0.9" d="M205.41 272.7L202.23 299.31C202.23 299.31 208.23 295.59 209.91 304.11C209.91 304.11 209.97 298.11 214.79 297.7C219.95 297.29 220.79 303.22 220.79 303.22C220.79 303.22 220.98 295.81 227.53 295.05L224.6 273.05L205.41 272.7Z" fill="white"/>
<path opacity="0.1" d="M209.77 283.8C208.937 287.443 208.761 291.205 209.25 294.91C209.25 294.91 210.7 288.5 209.77 283.8Z" fill="black"/>
<path opacity="0.1" d="M220.17 287.52C219.656 290.84 219.73 294.225 220.39 297.52C220.39 297.52 221.3 291.68 220.17 287.52Z" fill="black"/>
<path d="M195.47 79.86V86.55C208.094 90.1605 221.476 90.1605 234.1 86.55V79.86C234.111 71.1988 232.41 62.6209 229.097 54.6187C225.783 46.6166 220.921 39.3478 214.79 33.23C208.656 39.346 203.791 46.6142 200.476 54.6166C197.16 62.619 195.459 71.1979 195.47 79.86Z" fill="#407BFF"/>
<g opacity="0.3">
<path d="M195.47 79.86V86.55C208.094 90.1605 221.476 90.1605 234.1 86.55V79.86C234.111 71.1988 232.41 62.6209 229.097 54.6187C225.783 46.6166 220.921 39.3478 214.79 33.23C208.656 39.346 203.791 46.6142 200.476 54.6166C197.16 62.619 195.459 71.1979 195.47 79.86Z" fill="black"/>
</g>
<path d="M216.53 67.28V78.06H214V69.28H211.85V67.28H216.53Z" fill="#263238"/>
<path d="M234.1 142.62V92C221.476 88.3895 208.094 88.3895 195.47 92V142.65C208.091 139.03 221.474 139.019 234.1 142.62Z" fill="#263238"/>
<path d="M195.47 92.05V142.7C208.094 146.31 221.476 146.31 234.1 142.7V92.05C221.476 95.6605 208.094 95.6605 195.47 92.05Z" fill="#407BFF"/>
<path opacity="0.3" d="M195.47 92.05V142.7C208.094 146.31 221.476 146.31 234.1 142.7V92.05C221.476 95.6605 208.094 95.6605 195.47 92.05Z" fill="white"/>
<path opacity="0.4" d="M224.22 97.21V142.5C224.22 142.5 228.83 143.24 230.46 140.88V95.74L230.18 95.86C228.294 96.7163 226.251 97.1758 224.18 97.21H224.22Z" fill="white"/>
<path d="M225.582 129.376C231.491 123.467 231.491 113.887 225.582 107.979C219.673 102.07 210.094 102.07 204.185 107.979C198.276 113.887 198.276 123.467 204.185 129.376C210.094 135.284 219.673 135.284 225.582 129.376Z" fill="#407BFF"/>
<path d="M214.88 133.8C211.065 133.8 207.39 132.357 204.595 129.76C201.8 127.163 200.09 123.605 199.81 119.8C199.81 120.18 199.75 120.55 199.75 120.94C199.694 122.959 200.043 124.968 200.776 126.85C201.509 128.732 202.612 130.448 204.019 131.897C205.425 133.346 207.108 134.498 208.967 135.287C210.826 136.075 212.825 136.484 214.844 136.488C216.864 136.492 218.864 136.091 220.726 135.31C222.588 134.529 224.276 133.383 225.688 131.94C227.1 130.496 228.21 128.785 228.95 126.906C229.691 125.027 230.048 123.019 230 121C230 120.61 230 120.24 229.95 119.86C229.653 123.653 227.937 127.196 225.143 129.779C222.35 132.363 218.685 133.799 214.88 133.8Z" fill="#407BFF"/>
<path opacity="0.3" d="M214.88 133.8C211.065 133.8 207.39 132.357 204.595 129.76C201.8 127.163 200.09 123.605 199.81 119.8C199.81 120.18 199.75 120.55 199.75 120.94C199.694 122.959 200.043 124.968 200.776 126.85C201.509 128.732 202.612 130.448 204.019 131.897C205.425 133.346 207.108 134.498 208.967 135.287C210.826 136.075 212.825 136.484 214.844 136.488C216.864 136.492 218.864 136.091 220.726 135.31C222.588 134.529 224.276 133.383 225.688 131.94C227.1 130.496 228.21 128.785 228.95 126.906C229.691 125.027 230.048 123.019 230 121C230 120.61 230 120.24 229.95 119.86C229.653 123.653 227.937 127.196 225.143 129.779C222.35 132.363 218.685 133.799 214.88 133.8Z" fill="black"/>
<path opacity="0.6" d="M222.449 126.243C226.628 122.065 226.628 115.29 222.449 111.111C218.271 106.932 211.496 106.932 207.317 111.111C203.139 115.29 203.139 122.065 207.317 126.243C211.496 130.422 218.271 130.422 222.449 126.243Z" fill="white"/>
<path d="M214.32 129.32L218.7 108.71C217.561 108.277 216.358 108.041 215.14 108.01L210.78 128.55C211.907 129.008 213.105 129.268 214.32 129.32Z" fill="#407BFF"/>
<path d="M218.31 128.76L222.11 110.84C221.618 110.387 221.085 109.978 220.52 109.62L216.36 129.22C217.023 129.128 217.676 128.974 218.31 128.76Z" fill="#407BFF"/>
<g opacity="0.7">
<path d="M214.32 129.32L218.7 108.71C217.561 108.277 216.358 108.041 215.14 108.01L210.78 128.55C211.907 129.008 213.105 129.268 214.32 129.32Z" fill="white"/>
<path d="M218.31 128.76L222.11 110.84C221.618 110.387 221.085 109.978 220.52 109.62L216.36 129.22C217.023 129.128 217.676 128.974 218.31 128.76Z" fill="white"/>
</g>
<path d="M218.9 121.79V123.79H210.75V122.17L214.91 118.24C215.263 117.93 215.563 117.566 215.8 117.16C215.948 116.883 216.027 116.574 216.03 116.26C216.042 116.07 216.008 115.881 215.932 115.707C215.855 115.533 215.738 115.379 215.59 115.26C215.214 115.005 214.763 114.885 214.31 114.92C213.869 114.915 213.432 115.007 213.03 115.19C212.65 115.371 212.323 115.646 212.08 115.99L210.26 114.82C210.699 114.184 211.299 113.676 212 113.35C212.797 112.986 213.664 112.805 214.54 112.82C215.26 112.803 215.976 112.939 216.64 113.22C217.2 113.449 217.685 113.83 218.04 114.32C218.382 114.816 218.557 115.408 218.54 116.01C218.545 116.581 218.418 117.146 218.17 117.66C217.806 118.327 217.321 118.921 216.74 119.41L214.26 121.75L218.9 121.79Z" fill="#263238"/>
<path d="M234.1 198.77V148.12C221.476 144.509 208.094 144.509 195.47 148.12V198.77C208.094 195.159 221.476 195.159 234.1 198.77Z" fill="#263238"/>
<path d="M230.23 154.63H199.34L176.06 196C175.931 196.229 175.864 196.488 175.866 196.751C175.868 197.014 175.939 197.272 176.071 197.5C176.204 197.727 176.393 197.916 176.621 198.048C176.849 198.179 177.107 198.249 177.37 198.25H252.2C252.463 198.249 252.721 198.179 252.949 198.048C253.177 197.916 253.366 197.727 253.499 197.5C253.631 197.272 253.702 197.014 253.704 196.751C253.706 196.488 253.639 196.229 253.51 196L230.23 154.63Z" fill="#407BFF"/>
<path d="M234.1 148.2C221.476 151.81 208.094 151.81 195.47 148.2V200.35C208.093 203.966 221.477 203.966 234.1 200.35V148.2Z" fill="#407BFF"/>
<path opacity="0.5" d="M234.1 148.2C221.476 151.81 208.094 151.81 195.47 148.2V200.35C208.093 203.966 221.477 203.966 234.1 200.35V148.2Z" fill="white"/>
<path opacity="0.4" d="M224.22 154.28V199.58C224.22 199.58 228.83 200.31 230.46 197.95V152.81L230.18 152.94C228.295 153.798 226.251 154.254 224.18 154.28H224.22Z" fill="white"/>
<path d="M218 176.21C218.494 176.758 218.762 177.473 218.75 178.21C218.756 178.822 218.586 179.422 218.26 179.94C217.894 180.5 217.373 180.941 216.76 181.21C215.979 181.551 215.132 181.715 214.28 181.69C213.523 181.69 212.77 181.589 212.04 181.39C211.371 181.219 210.738 180.931 210.17 180.54L211.17 178.63C211.605 178.943 212.088 179.183 212.6 179.34C213.133 179.511 213.69 179.598 214.25 179.6C214.77 179.631 215.286 179.501 215.73 179.23C215.898 179.124 216.036 178.976 216.131 178.801C216.225 178.626 216.273 178.429 216.27 178.23C216.27 177.35 215.6 176.91 214.27 176.91H213.13V175.26L215.35 172.75H210.76V170.75H218.31V172.36L215.87 175.13C216.68 175.244 217.429 175.624 218 176.21Z" fill="#263238"/>
<path d="M195.47 213.53H193.61L161.67 270.28C161.494 270.595 161.403 270.951 161.407 271.312C161.411 271.674 161.509 272.027 161.692 272.339C161.875 272.65 162.136 272.908 162.45 273.087C162.764 273.267 163.119 273.361 163.48 273.36H195.48L195.47 213.53Z" fill="#407BFF"/>
<path d="M267.9 270.28L236 213.53H234.1V273.36H266.1C266.462 273.362 266.817 273.268 267.131 273.089C267.445 272.91 267.706 272.652 267.889 272.339C268.071 272.027 268.168 271.673 268.17 271.311C268.172 270.95 268.079 270.594 267.9 270.28Z" fill="#407BFF"/>
<g opacity="0.2">
<path d="M195.47 213.53H193.61L161.67 270.28C161.494 270.595 161.403 270.951 161.407 271.312C161.411 271.674 161.509 272.027 161.692 272.339C161.875 272.65 162.136 272.908 162.45 273.087C162.764 273.267 163.119 273.361 163.48 273.36H195.48L195.47 213.53Z" fill="black"/>
<path d="M267.9 270.28L236 213.53H234.1V273.36H266.1C266.461 273.362 266.817 273.268 267.131 273.089C267.445 272.91 267.706 272.652 267.889 272.339C268.071 272.027 268.168 271.673 268.17 271.311C268.172 270.95 268.079 270.594 267.9 270.28Z" fill="black"/>
</g>
<path d="M234.1 247.91V206.06C221.476 202.449 208.094 202.449 195.47 206.06V247.91C208.094 244.299 221.476 244.299 234.1 247.91Z" fill="#263238"/>
<path d="M229 274.15L223.93 253.33H205.64L200.57 274.15C205.075 276.025 209.906 276.99 214.785 276.99C219.664 276.99 224.495 276.025 229 274.15Z" fill="#263238"/>
<path opacity="0.2" d="M205.64 253.33L204.45 258.2C211.2 260.164 218.37 260.164 225.12 258.2L223.93 253.33H205.64Z" fill="white"/>
<path opacity="0.4" d="M203.18 263.43C202.86 264.75 202.53 266.08 202.18 267.35C210.361 269.89 219.119 269.89 227.3 267.35L226.3 263.44C218.666 264.94 210.813 264.936 203.18 263.43Z" fill="white"/>
<path d="M234.1 205.86C221.477 209.476 208.093 209.476 195.47 205.86V242.17C207.982 246.505 221.588 246.505 234.1 242.17V205.87V205.86Z" fill="#407BFF"/>
<path opacity="0.7" d="M234.1 205.86C221.477 209.476 208.093 209.476 195.47 205.86V242.17C207.982 246.505 221.588 246.505 234.1 242.17V205.87V205.86Z" fill="white"/>
<path d="M195.47 242.16V251C201.592 253.543 208.156 254.852 214.785 254.852C221.414 254.852 227.978 253.543 234.1 251V242.14C221.59 246.481 207.984 246.488 195.47 242.16Z" fill="#407BFF"/>
<path opacity="0.2" d="M195.47 242.16V251C201.592 253.543 208.156 254.852 214.785 254.852C221.414 254.852 227.978 253.543 234.1 251V242.14C221.59 246.481 207.984 246.488 195.47 242.16Z" fill="black"/>
<path d="M186.87 226.62V229.62C192.493 231.235 198.457 231.235 204.08 229.62V226.62C204.084 222.761 203.326 218.94 201.848 215.376C200.37 211.811 198.203 208.574 195.47 205.85C192.74 208.576 190.575 211.814 189.1 215.378C187.624 218.942 186.866 222.762 186.87 226.62Z" fill="#407BFF"/>
<path opacity="0.2" d="M186.87 226.62V229.62C192.493 231.235 198.457 231.235 204.08 229.62V226.62C204.084 222.761 203.326 218.94 201.848 215.376C200.37 211.811 198.203 208.574 195.47 205.85C192.74 208.576 190.575 211.814 189.1 215.378C187.624 218.942 186.866 222.762 186.87 226.62Z" fill="white"/>
<path d="M186.87 229.6V252.16C192.494 253.77 198.456 253.77 204.08 252.16V229.6C198.457 231.215 192.493 231.215 186.87 229.6Z" fill="#407BFF"/>
<path opacity="0.4" d="M186.87 229.6V252.16C192.494 253.77 198.456 253.77 204.08 252.16V229.6C198.457 231.215 192.493 231.215 186.87 229.6Z" fill="white"/>
<path d="M204.08 252.17C198.456 253.78 192.494 253.78 186.87 252.17V275.4C192.494 277.005 198.456 277.005 204.08 275.4V252.17Z" fill="#407BFF"/>
<path opacity="0.6" d="M204.08 252.17C198.456 253.78 192.494 253.78 186.87 252.17V275.4C192.494 277.005 198.456 277.005 204.08 275.4V252.17Z" fill="white"/>
<path d="M186.87 275V278.95C189.598 280.082 192.522 280.665 195.475 280.665C198.428 280.665 201.352 280.082 204.08 278.95V275C198.506 276.93 192.444 276.93 186.87 275Z" fill="#407BFF"/>
<path opacity="0.4" d="M195.47 208.82C195.47 208.82 198.55 216.48 198.55 223.13V273.5L201.17 272.97V220.16C201.17 220.16 200.77 213.17 195.47 208.82Z" fill="white"/>
<path d="M225.5 226.62V229.62C231.12 231.235 237.08 231.235 242.7 229.62V226.62C242.704 222.762 241.946 218.942 240.47 215.378C238.995 211.814 236.83 208.576 234.1 205.85C231.368 208.574 229.202 211.812 227.727 215.376C226.251 218.941 225.494 222.762 225.5 226.62Z" fill="#407BFF"/>
<path opacity="0.2" d="M225.5 226.62V229.62C231.12 231.235 237.08 231.235 242.7 229.62V226.62C242.704 222.762 241.946 218.942 240.47 215.378C238.995 211.814 236.83 208.576 234.1 205.85C231.368 208.574 229.202 211.812 227.727 215.376C226.251 218.941 225.494 222.762 225.5 226.62Z" fill="white"/>
<path d="M225.5 229.6V252.16C231.12 253.77 237.08 253.77 242.7 252.16V229.6C237.08 231.215 231.12 231.215 225.5 229.6Z" fill="#407BFF"/>
<path opacity="0.4" d="M225.5 229.6V252.16C231.12 253.77 237.08 253.77 242.7 252.16V229.6C237.08 231.215 231.12 231.215 225.5 229.6Z" fill="white"/>
<path d="M242.7 252.17C237.08 253.78 231.12 253.78 225.5 252.17V275.4C231.121 277.005 237.079 277.005 242.7 275.4V252.17Z" fill="#407BFF"/>
<path opacity="0.6" d="M242.7 252.17C237.08 253.78 231.12 253.78 225.5 252.17V275.4C231.121 277.005 237.079 277.005 242.7 275.4V252.17Z" fill="white"/>
<path d="M225.5 275V278.95C228.226 280.082 231.148 280.664 234.1 280.664C237.052 280.664 239.974 280.082 242.7 278.95V275C237.129 276.93 231.071 276.93 225.5 275Z" fill="#407BFF"/>
<path opacity="0.4" d="M234.25 209.42C234.25 209.42 237.33 217.08 237.33 223.73V274.1L239.94 273.57V220.76C239.94 220.76 239.55 213.77 234.25 209.42Z" fill="white"/>
<path d="M220 234.64H218.2V236.9H215.76V234.64H210V233L215.08 226.16H217.7L213 232.61H215.89V230.61H218.25V232.61H220V234.64Z" fill="#263238"/>
<path opacity="0.4" d="M225.23 57.94C228.08 66.49 229.11 75.61 229.49 85.39C227.14 86.81 227.14 86.81 224.15 86.31C224.439 76.8515 223.538 67.3941 221.47 58.16L225.23 57.94Z" fill="white"/>
<path opacity="0.4" d="M221 54.57C219.876 49.5607 218.396 44.6381 216.57 39.84C219.943 44.3575 222.638 49.3435 224.57 54.64L221 54.57Z" fill="white"/>
<path d="M239.83 232.09L238.93 231.65L248.64 211.91H275.3V212.91H249.27L239.83 232.09Z" fill="#407BFF"/>
<path d="M240.11 234.44C241.872 234.44 243.3 233.012 243.3 231.25C243.3 229.488 241.872 228.06 240.11 228.06C238.348 228.06 236.92 229.488 236.92 231.25C236.92 233.012 238.348 234.44 240.11 234.44Z" fill="#263238"/>
<path d="M308.38 191.81H279.48C276.713 191.81 274.47 194.053 274.47 196.82V225.72C274.47 228.487 276.713 230.73 279.48 230.73H308.38C311.147 230.73 313.39 228.487 313.39 225.72V196.82C313.39 194.053 311.147 191.81 308.38 191.81Z" fill="#407BFF"/>
<path opacity="0.4" d="M308.38 191.81H279.48C276.713 191.81 274.47 194.053 274.47 196.82V225.72C274.47 228.487 276.713 230.73 279.48 230.73H308.38C311.147 230.73 313.39 228.487 313.39 225.72V196.82C313.39 194.053 311.147 191.81 308.38 191.81Z" fill="black"/>
<path d="M297.61 207C297.61 209.31 296.24 211.19 293.93 211.19C291.62 211.19 290.24 209.31 290.24 207C290.24 204.69 291.62 202.82 293.93 202.82C296.24 202.82 297.61 204.68 297.61 207Z" fill="#407BFF"/>
<path d="M297.34 210.41C296.922 210.908 296.401 211.309 295.811 211.584C295.222 211.859 294.58 212.001 293.93 212.001C293.28 212.001 292.638 211.859 292.049 211.584C291.459 211.309 290.938 210.908 290.52 210.41C287.58 211.41 285.9 213.92 285.9 217.67H302C302 213.92 300.28 211.43 297.34 210.41Z" fill="#407BFF"/>
<path d="M283.31 213.7C284.497 213.7 285.46 212.608 285.46 211.26C285.46 209.912 284.497 208.82 283.31 208.82C282.123 208.82 281.16 209.912 281.16 211.26C281.16 212.608 282.123 213.7 283.31 213.7Z" fill="#407BFF"/>
<path d="M304.55 213.7C305.737 213.7 306.7 212.608 306.7 211.26C306.7 209.912 305.737 208.82 304.55 208.82C303.363 208.82 302.4 209.912 302.4 211.26C302.4 212.608 303.363 213.7 304.55 213.7Z" fill="#407BFF"/>
<path d="M302.8 217.67H309.41C309.41 215.48 308.41 214.03 306.73 213.44C306.487 213.735 306.182 213.973 305.836 214.136C305.49 214.3 305.112 214.384 304.73 214.384C304.348 214.384 303.97 214.3 303.624 214.136C303.278 213.973 302.973 213.735 302.73 213.44C302.494 213.521 302.266 213.625 302.05 213.75C302.561 214.993 302.816 216.326 302.8 217.67Z" fill="#407BFF"/>
<path d="M285.05 217.67C285.026 216.327 285.278 214.992 285.79 213.75C285.571 213.625 285.339 213.521 285.1 213.44C284.858 213.737 284.553 213.976 284.207 214.141C283.861 214.305 283.483 214.39 283.1 214.39C282.717 214.39 282.339 214.305 281.993 214.141C281.647 213.976 281.342 213.737 281.1 213.44C279.38 214.03 278.41 215.44 278.41 217.67H285.05Z" fill="#407BFF"/>
<path opacity="0.8" d="M297.61 207C297.61 209.31 296.24 211.19 293.93 211.19C291.62 211.19 290.24 209.31 290.24 207C290.24 204.69 291.62 202.82 293.93 202.82C296.24 202.82 297.61 204.68 297.61 207Z" fill="white"/>
<path opacity="0.8" d="M297.34 210.41C296.922 210.908 296.401 211.309 295.811 211.584C295.222 211.859 294.58 212.001 293.93 212.001C293.28 212.001 292.638 211.859 292.049 211.584C291.459 211.309 290.938 210.908 290.52 210.41C287.58 211.41 285.9 213.92 285.9 217.67H302C302 213.92 300.28 211.43 297.34 210.41Z" fill="white"/>
<path opacity="0.8" d="M283.31 213.7C284.497 213.7 285.46 212.608 285.46 211.26C285.46 209.912 284.497 208.82 283.31 208.82C282.123 208.82 281.16 209.912 281.16 211.26C281.16 212.608 282.123 213.7 283.31 213.7Z" fill="white"/>
<path opacity="0.8" d="M304.55 213.7C305.737 213.7 306.7 212.608 306.7 211.26C306.7 209.912 305.737 208.82 304.55 208.82C303.363 208.82 302.4 209.912 302.4 211.26C302.4 212.608 303.363 213.7 304.55 213.7Z" fill="white"/>
<path opacity="0.8" d="M302.8 217.67H309.41C309.41 215.48 308.41 214.03 306.73 213.44C306.487 213.735 306.182 213.973 305.836 214.136C305.49 214.3 305.112 214.384 304.73 214.384C304.348 214.384 303.97 214.3 303.624 214.136C303.278 213.973 302.973 213.735 302.73 213.44C302.494 213.521 302.266 213.625 302.05 213.75C302.561 214.993 302.816 216.326 302.8 217.67Z" fill="white"/>
<path opacity="0.8" d="M285.05 217.67C285.026 216.327 285.278 214.992 285.79 213.75C285.571 213.625 285.339 213.521 285.1 213.44C284.858 213.737 284.553 213.976 284.207 214.141C283.861 214.305 283.483 214.39 283.1 214.39C282.717 214.39 282.339 214.305 281.993 214.141C281.647 213.976 281.342 213.737 281.1 213.44C279.38 214.03 278.41 215.44 278.41 217.67H285.05Z" fill="white"/>
<path d="M188.19 119.93L178.75 100.75H152.72V99.7499H179.38L189.09 119.49L188.19 119.93Z" fill="#407BFF"/>
<path d="M187.91 122.28C189.672 122.28 191.1 120.852 191.1 119.09C191.1 117.328 189.672 115.9 187.91 115.9C186.148 115.9 184.72 117.328 184.72 119.09C184.72 120.852 186.148 122.28 187.91 122.28Z" fill="#263238"/>
<path d="M150.33 78.46H121.43C118.663 78.46 116.42 80.703 116.42 83.47V112.37C116.42 115.137 118.663 117.38 121.43 117.38H150.33C153.097 117.38 155.34 115.137 155.34 112.37V83.47C155.34 80.703 153.097 78.46 150.33 78.46Z" fill="#407BFF"/>
<path opacity="0.4" d="M150.33 78.46H121.43C118.663 78.46 116.42 80.703 116.42 83.47V112.37C116.42 115.137 118.663 117.38 121.43 117.38H150.33C153.097 117.38 155.34 115.137 155.34 112.37V83.47C155.34 80.703 153.097 78.46 150.33 78.46Z" fill="black"/>
<path d="M125.88 99.5299L130.9 104.55L135.73 96.6499L140.71 104.8L146.59 94.6999L146.72 95.9199L148.12 95.7799L147.67 91.4399L143.76 93.2599L144.36 94.5299L145.33 94.0699L140.69 102.06L135.73 93.9499L130.63 102.3L125.72 97.3799L121.32 103.36L122.45 104.19L125.88 99.5299Z" fill="#407BFF"/>
<path d="M149.39 91.4399V105.77H121.32V106.82H150.44V91.4399H149.39Z" fill="#407BFF"/>
<g opacity="0.8">
<path d="M125.88 99.5299L130.9 104.55L135.73 96.6499L140.71 104.8L146.59 94.6999L146.72 95.9199L148.12 95.7799L147.67 91.4399L143.76 93.2599L144.36 94.5299L145.33 94.0699L140.69 102.06L135.73 93.9499L130.63 102.3L125.72 97.3799L121.32 103.36L122.45 104.19L125.88 99.5299Z" fill="white"/>
<path d="M149.39 91.4399V105.77H121.32V106.82H150.44V91.4399H149.39Z" fill="white"/>
</g>
<path d="M188.19 177.66L178.75 158.48H152.72V157.48H179.38L189.09 177.22L188.19 177.66Z" fill="#407BFF"/>
<path d="M187.91 180.01C189.672 180.01 191.1 178.582 191.1 176.82C191.1 175.058 189.672 173.63 187.91 173.63C186.148 173.63 184.72 175.058 184.72 176.82C184.72 178.582 186.148 180.01 187.91 180.01Z" fill="#263238"/>
<path d="M150.38 137.37H121.48C118.713 137.37 116.47 139.613 116.47 142.38V171.28C116.47 174.047 118.713 176.29 121.48 176.29H150.38C153.147 176.29 155.39 174.047 155.39 171.28V142.38C155.39 139.613 153.147 137.37 150.38 137.37Z" fill="#407BFF"/>
<path opacity="0.4" d="M150.38 137.37H121.48C118.713 137.37 116.47 139.613 116.47 142.38V171.28C116.47 174.047 118.713 176.29 121.48 176.29H150.38C153.147 176.29 155.39 174.047 155.39 171.28V142.38C155.39 139.613 153.147 137.37 150.38 137.37Z" fill="black"/>
<path d="M139.41 155.06C139.425 154.804 139.425 154.546 139.41 154.29L141.89 152.42C141.658 151.61 141.322 150.834 140.89 150.11L137.81 150.54C137.485 150.137 137.12 149.768 136.72 149.44L137.15 146.37C136.423 145.945 135.648 145.609 134.84 145.37L133 147.89C132.74 147.875 132.48 147.875 132.22 147.89C131.964 147.875 131.706 147.875 131.45 147.89L129.58 145.41C128.772 145.647 127.996 145.983 127.27 146.41L127.7 149.48C127.299 149.811 126.931 150.179 126.6 150.58L123.53 150.15C123.103 150.876 122.767 151.652 122.53 152.46L125.01 154.33C124.957 154.845 124.957 155.365 125.01 155.88L122.53 157.75C122.769 158.558 123.105 159.333 123.53 160.06L126.6 159.63C126.928 160.03 127.297 160.395 127.7 160.72L127.27 163.8C127.994 164.232 128.77 164.568 129.58 164.8L131.45 162.33C131.7 162.33 131.96 162.33 132.22 162.33C132.48 162.33 132.74 162.33 133 162.33L134.87 164.8C135.679 164.566 136.455 164.23 137.18 163.8L136.75 160.72C137.152 160.398 137.518 160.032 137.84 159.63L140.92 160.06C141.35 159.335 141.686 158.559 141.92 157.75L139.44 155.88C139.447 155.606 139.437 155.332 139.41 155.06ZM132.19 157.36C131.735 157.36 131.29 157.225 130.912 156.972C130.534 156.72 130.239 156.36 130.065 155.94C129.891 155.52 129.845 155.057 129.934 154.611C130.023 154.165 130.242 153.755 130.564 153.434C130.885 153.112 131.295 152.893 131.741 152.804C132.187 152.715 132.65 152.761 133.07 152.935C133.49 153.109 133.85 153.404 134.102 153.782C134.355 154.16 134.49 154.605 134.49 155.06C134.49 155.67 134.248 156.255 133.816 156.686C133.385 157.118 132.8 157.36 132.19 157.36Z" fill="#407BFF"/>
<path d="M148.06 164.17C148.06 164.04 148.06 163.91 148.06 163.78L149.3 162.85C149.192 162.447 149.031 162.06 148.82 161.7L147.28 161.91C147.118 161.71 146.937 161.525 146.74 161.36L146.95 159.83C146.59 159.619 146.203 159.458 145.8 159.35L144.86 160.59C144.73 160.579 144.6 160.579 144.47 160.59C144.344 160.58 144.216 160.58 144.09 160.59L143.15 159.35C142.747 159.458 142.36 159.619 142 159.83L142.21 161.36C142.012 161.528 141.828 161.712 141.66 161.91L140.13 161.7C139.919 162.06 139.758 162.447 139.65 162.85L140.89 163.78C140.89 163.91 140.89 164.04 140.89 164.17C140.89 164.3 140.89 164.43 140.89 164.56L139.65 165.5C139.76 165.902 139.921 166.289 140.13 166.65L141.66 166.43C141.823 166.633 142.007 166.817 142.21 166.98L142 168.52C142.362 168.727 142.748 168.888 143.15 169L144.09 167.76H144.47H144.86L145.8 169C146.202 168.888 146.588 168.727 146.95 168.52L146.74 166.98C146.942 166.82 147.123 166.635 147.28 166.43L148.82 166.65C149.029 166.289 149.19 165.902 149.3 165.5L148.06 164.56C148.05 164.43 148.06 164.3 148.06 164.17ZM144.45 166.66C143.957 166.66 143.476 166.514 143.067 166.24C142.657 165.967 142.338 165.578 142.15 165.123C141.961 164.668 141.912 164.167 142.008 163.684C142.104 163.201 142.341 162.758 142.689 162.409C143.038 162.061 143.481 161.824 143.964 161.728C144.447 161.632 144.948 161.681 145.403 161.87C145.858 162.058 146.247 162.377 146.52 162.787C146.794 163.196 146.94 163.677 146.94 164.17C146.94 164.497 146.876 164.821 146.75 165.123C146.625 165.425 146.442 165.699 146.211 165.931C145.979 166.162 145.705 166.345 145.403 166.47C145.101 166.596 144.777 166.66 144.45 166.66Z" fill="#407BFF"/>
<g opacity="0.8">
<path d="M139.41 155.06C139.425 154.804 139.425 154.546 139.41 154.29L141.89 152.42C141.658 151.61 141.322 150.834 140.89 150.11L137.81 150.54C137.485 150.137 137.12 149.768 136.72 149.44L137.15 146.37C136.423 145.945 135.648 145.609 134.84 145.37L133 147.89C132.74 147.875 132.48 147.875 132.22 147.89C131.964 147.875 131.706 147.875 131.45 147.89L129.58 145.41C128.772 145.647 127.996 145.983 127.27 146.41L127.7 149.48C127.299 149.811 126.931 150.179 126.6 150.58L123.53 150.15C123.103 150.876 122.767 151.652 122.53 152.46L125.01 154.33C124.957 154.845 124.957 155.365 125.01 155.88L122.53 157.75C122.769 158.558 123.105 159.333 123.53 160.06L126.6 159.63C126.928 160.03 127.297 160.395 127.7 160.72L127.27 163.8C127.994 164.232 128.77 164.568 129.58 164.8L131.45 162.33C131.7 162.33 131.96 162.33 132.22 162.33C132.48 162.33 132.74 162.33 133 162.33L134.87 164.8C135.679 164.566 136.455 164.23 137.18 163.8L136.75 160.72C137.152 160.398 137.518 160.032 137.84 159.63L140.92 160.06C141.35 159.335 141.686 158.559 141.92 157.75L139.44 155.88C139.447 155.606 139.437 155.332 139.41 155.06ZM132.19 157.36C131.735 157.36 131.29 157.225 130.912 156.972C130.534 156.72 130.239 156.36 130.065 155.94C129.891 155.52 129.845 155.057 129.934 154.611C130.023 154.165 130.242 153.755 130.564 153.434C130.885 153.112 131.295 152.893 131.741 152.804C132.187 152.715 132.65 152.761 133.07 152.935C133.49 153.109 133.85 153.404 134.102 153.782C134.355 154.16 134.49 154.605 134.49 155.06C134.49 155.67 134.248 156.255 133.816 156.686C133.385 157.118 132.8 157.36 132.19 157.36Z" fill="white"/>
<path d="M148.06 164.17C148.06 164.04 148.06 163.91 148.06 163.78L149.3 162.85C149.192 162.447 149.031 162.06 148.82 161.7L147.28 161.91C147.118 161.71 146.937 161.525 146.74 161.36L146.95 159.83C146.59 159.619 146.203 159.458 145.8 159.35L144.86 160.59C144.73 160.579 144.6 160.579 144.47 160.59C144.344 160.58 144.216 160.58 144.09 160.59L143.15 159.35C142.747 159.458 142.36 159.619 142 159.83L142.21 161.36C142.012 161.528 141.828 161.712 141.66 161.91L140.13 161.7C139.919 162.06 139.758 162.447 139.65 162.85L140.89 163.78C140.89 163.91 140.89 164.04 140.89 164.17C140.89 164.3 140.89 164.43 140.89 164.56L139.65 165.5C139.76 165.902 139.921 166.289 140.13 166.65L141.66 166.43C141.823 166.633 142.007 166.817 142.21 166.98L142 168.52C142.362 168.727 142.748 168.888 143.15 169L144.09 167.76H144.47H144.86L145.8 169C146.202 168.888 146.588 168.727 146.95 168.52L146.74 166.98C146.942 166.82 147.123 166.635 147.28 166.43L148.82 166.65C149.029 166.289 149.19 165.902 149.3 165.5L148.06 164.56C148.05 164.43 148.06 164.3 148.06 164.17ZM144.45 166.66C143.957 166.66 143.476 166.514 143.067 166.24C142.657 165.967 142.338 165.578 142.15 165.123C141.961 164.668 141.912 164.167 142.008 163.684C142.104 163.201 142.341 162.758 142.689 162.409C143.038 162.061 143.481 161.824 143.964 161.728C144.447 161.632 144.948 161.681 145.403 161.87C145.858 162.058 146.247 162.377 146.52 162.787C146.794 163.196 146.94 163.677 146.94 164.17C146.94 164.497 146.876 164.821 146.75 165.123C146.625 165.425 146.442 165.699 146.211 165.931C145.979 166.162 145.705 166.345 145.403 166.47C145.101 166.596 144.777 166.66 144.45 166.66Z" fill="white"/>
</g>
<path d="M239.83 71.3099L238.93 70.8699L248.64 51.1299H275.3V52.1299H249.27L239.83 71.3099Z" fill="#407BFF"/>
<path d="M240.11 73.6599C241.872 73.6599 243.3 72.2317 243.3 70.4699C243.3 68.7081 241.872 67.2799 240.11 67.2799C238.348 67.2799 236.92 68.7081 236.92 70.4699C236.92 72.2317 238.348 73.6599 240.11 73.6599Z" fill="#263238"/>
<path d="M308.38 32.1699H279.48C276.713 32.1699 274.47 34.413 274.47 37.1799V66.0799C274.47 68.8469 276.713 71.0899 279.48 71.0899H308.38C311.147 71.0899 313.39 68.8469 313.39 66.0799V37.1799C313.39 34.413 311.147 32.1699 308.38 32.1699Z" fill="#407BFF"/>
<path opacity="0.4" d="M308.38 32.1699H279.48C276.713 32.1699 274.47 34.413 274.47 37.1799V66.0799C274.47 68.8469 276.713 71.0899 279.48 71.0899H308.38C311.147 71.0899 313.39 68.8469 313.39 66.0799V37.1799C313.39 34.413 311.147 32.1699 308.38 32.1699Z" fill="black"/>
<path d="M293.65 37.9999C291.74 38.0519 289.893 38.6921 288.36 39.8332C286.828 40.9742 285.685 42.5605 285.088 44.3754C284.49 46.1903 284.468 48.1452 285.023 49.9734C285.578 51.8016 286.684 53.4138 288.19 54.5899C289.732 55.7714 290.811 57.4556 291.24 59.3499L291.34 59.8299H296.52L296.62 59.3599C297.061 57.4442 298.157 55.7428 299.72 54.5499C301.245 53.3342 302.349 51.6695 302.875 49.7916C303.401 47.9136 303.322 45.9178 302.651 44.0868C301.979 42.2559 300.749 40.6827 299.133 39.5902C297.518 38.4977 295.599 37.9413 293.65 37.9999ZM296.89 53.6299L295.64 53.4099L296.64 47.5399L295 48.7299L294.11 46.2099L293.24 48.8799L291.35 47.8799L292.35 53.3999L291.1 53.6199L289.54 44.8399L292.61 46.7799L294 42.2399L295.65 46.9199L298.38 45.1699L296.89 53.6299Z" fill="#407BFF"/>
<path d="M296.5 60.5699H291.36V62.7399H296.5V60.5699Z" fill="#407BFF"/>
<path d="M293.86 64.6999H294C294.482 64.701 294.957 64.5937 295.392 64.386C295.826 64.1783 296.208 63.8754 296.51 63.4999H291.37C291.669 63.8728 292.048 64.1741 292.479 64.3817C292.91 64.5893 293.382 64.698 293.86 64.6999Z" fill="#407BFF"/>
<g opacity="0.8">
<path d="M296.5 60.5699H291.36V62.7399H296.5V60.5699Z" fill="white"/>
<path d="M293.86 64.6999H294C294.482 64.701 294.957 64.5937 295.392 64.386C295.826 64.1783 296.208 63.8754 296.51 63.4999H291.37C291.669 63.8728 292.048 64.1741 292.479 64.3817C292.91 64.5893 293.382 64.698 293.86 64.6999Z" fill="white"/>
</g>
<path opacity="0.9" d="M293.65 37.9999C291.74 38.0519 289.893 38.6921 288.36 39.8332C286.828 40.9742 285.685 42.5605 285.088 44.3754C284.49 46.1903 284.468 48.1452 285.023 49.9734C285.578 51.8016 286.684 53.4138 288.19 54.5899C289.732 55.7714 290.811 57.4556 291.24 59.3499L291.34 59.8299H296.52L296.62 59.3599C297.061 57.4442 298.157 55.7428 299.72 54.5499C301.245 53.3342 302.349 51.6695 302.875 49.7916C303.401 47.9136 303.322 45.9178 302.651 44.0868C301.979 42.2559 300.749 40.6827 299.133 39.5902C297.518 38.4977 295.599 37.9413 293.65 37.9999ZM296.89 53.6299L295.64 53.4099L296.64 47.5399L295 48.7299L294.11 46.2099L293.24 48.8799L291.35 47.8799L292.35 53.3999L291.1 53.6199L289.54 44.8399L292.61 46.7799L294 42.2399L295.65 46.9199L298.38 45.1699L296.89 53.6299Z" fill="white"/>
</svg>
