<svg width="230" height="211" viewBox="0 0 230 211" fill="none" xmlns="http://www.w3.org/2000/svg">
<path d="M188.92 107.75C188.92 102.29 188.43 97.04 187.52 92H115V121.82H156.44C154.62 131.41 149.16 139.53 140.97 144.99V164.38H165.96C180.52 150.94 188.92 131.2 188.92 107.75Z" fill="#4285F4"/>
<path d="M115 183C135.79 183 153.22 176.14 165.96 164.38L140.97 144.99C134.11 149.61 125.36 152.41 115 152.41C94.98 152.41 77.97 138.9 71.88 120.7H46.26V140.58C58.93 165.71 84.9 183 115 183Z" fill="#34A853"/>
<path d="M71.88 120.63C70.34 116.01 69.43 111.11 69.43 106C69.43 100.89 70.34 95.99 71.88 91.37V71.49H46.26C41.01 81.85 38 93.54 38 106C38 118.46 41.01 130.15 46.26 140.51L66.21 124.97L71.88 120.63Z" fill="#FBBC05"/>
<path d="M115 59.66C126.34 59.66 136.42 63.58 144.47 71.14L166.52 49.09C153.15 36.63 135.79 29 115 29C84.9 29 58.93 46.29 46.26 71.49L71.88 91.37C77.97 73.17 94.98 59.66 115 59.66Z" fill="#EA4335"/>
</svg>
